<?xml version="1.0" standalone="no"?>
<!DOCTYPE svg PUBLIC "-//W3C//DTD SVG 1.1//EN" "http://www.w3.org/Graphics/SVG/1.1/DTD/svg11.dtd" >
<svg xmlns="http://www.w3.org/2000/svg" xmlns:xlink="http://www.w3.org/1999/xlink" version="1.1">
<metadata>
Created by FontForge 20170924 at Sun Jun 24 08:27:55 2018
 By www-data
Copyright (c) 2018 by Rajesh Rajput. All rights reserved.
</metadata>
<defs>
<font id="Morganite-Medium" horiz-adv-x="199" >
  <font-face 
    font-family="Morganite"
    font-weight="500"
    font-style="italic"
    font-stretch="normal"
    units-per-em="1000"
    panose-1="0 0 0 0 0 0 0 0 0 0"
    ascent="750"
    descent="-250"
    x-height="495"
    cap-height="699"
    bbox="-37 -176 576 851"
    underline-thickness="52"
    underline-position="-100"
    slope="-15"
    unicode-range="U+000D-FB02"
  />
<missing-glyph horiz-adv-x="120" 
 />
    <glyph glyph-name=".notdef" horiz-adv-x="120" 
 />
    <glyph glyph-name="NULL" horiz-adv-x="0" 
 />
    <glyph glyph-name="NULL" horiz-adv-x="0" 
 />
    <glyph glyph-name="nonmarkingreturn" unicode="&#xd;" horiz-adv-x="120" 
 />
    <glyph glyph-name="space" unicode=" " horiz-adv-x="120" 
 />
    <glyph glyph-name="K" unicode="K" horiz-adv-x="218" 
d="M117 363l96 -363h-52l-83 287h-1v-287h-57v699h57v-283h1l85 283h52z" />
    <glyph glyph-name="L" unicode="L" horiz-adv-x="165" 
d="M77 699v-656h85v-43h-142v699h57z" />
    <glyph glyph-name="M" unicode="M" horiz-adv-x="298" 
d="M278 699v-699h-47v526h-1l-61 -526h-43l-59 526h-1v-526h-48v699h74l55 -485h1l56 485h74z" />
    <glyph glyph-name="N" unicode="N" horiz-adv-x="247" 
d="M165 0l-98 526h-1v-526h-48v699h65l94 -520v520h52v-699h-64z" />
    <glyph glyph-name="O" unicode="O" horiz-adv-x="220" 
d="M102 -6q-15 0 -30 5.5t-27 16.5t-19.5 29t-7.5 43v522q0 25 7.5 43t19.5 29.5t27 17t30 5.5h16q15 0 30 -5.5t27 -17t19.5 -29.5t7.5 -43v-522q0 -25 -7.5 -43t-19.5 -29t-27 -16.5t-30 -5.5h-16zM107 657q-13 0 -22.5 -13t-9.5 -42v-505q0 -30 9.5 -42.5t22.5 -12.5h6
q13 0 22.5 12.5t9.5 42.5v505q0 29 -9.5 42t-22.5 13h-6z" />
    <glyph glyph-name="P" unicode="P" horiz-adv-x="222" 
d="M120 699q34 0 59 -24t25 -70v-230q0 -43 -22.5 -61.5t-56.5 -18.5h-48v-295h-57v699h100zM147 596q0 29 -9.5 42t-22.5 13h-38v-309h43q27 0 27 50v204z" />
    <glyph glyph-name="Q" unicode="Q" horiz-adv-x="221" 
d="M102 -6q-15 0 -30 5.5t-27 16.5t-19.5 29t-7.5 43v522q0 25 7.5 43t19.5 29.5t27 17t30 5.5h16q15 0 30 -5.5t27 -17t19.5 -29.5t7.5 -43v-522q0 -27 -8.5 -45.5t-21.5 -29.5l27 -27l-29 -29l-38 39q-4 -1 -7 -1.5t-7 -0.5h-16zM107 657q-13 0 -22.5 -13t-9.5 -42v-505
q0 -30 9.5 -42.5t22.5 -12.5h6q13 0 22.5 12.5t9.5 42.5v505q0 29 -9.5 42t-22.5 13h-6z" />
    <glyph glyph-name="R" unicode="R" horiz-adv-x="228" 
d="M204 416q0 -32 -10 -47.5t-25 -20.5q15 -4 25 -19.5t10 -47.5v-168q0 -59 4 -83t6 -30h-57q-6 12 -8 38t-2 75v163q0 51 -27 51h-43v-327h-57v699h100q34 0 59 -23.5t25 -70.5v-189zM120 370q27 0 27 50v176q0 29 -9.5 42t-22.5 13h-38v-281h43z" />
    <glyph glyph-name="S" unicode="S" horiz-adv-x="220" 
d="M145 417v185q0 30 -9.5 42.5t-22.5 12.5h-6q-13 0 -22.5 -12.5t-9.5 -42.5v-94q0 -48 20 -84t43.5 -69.5t43.5 -70t20 -84.5v-112q0 -25 -7 -43t-19 -29t-27 -16.5t-31 -5.5h-14q-15 0 -30.5 5.5t-28 16.5t-20 29t-7.5 43v194h52v-185q0 -30 10.5 -42.5t24.5 -12.5h6
q14 0 24 12.5t10 42.5v94q0 47 -20 83t-43.5 69.5t-43.5 70t-20 85.5v111q0 25 7.5 43t19.5 29.5t27.5 17t30.5 5.5h10q15 0 30 -5.5t27 -17t19.5 -29.5t7.5 -43v-193h-52z" />
    <glyph glyph-name="T" unicode="T" horiz-adv-x="194" 
d="M191 651h-65v-651h-57v651h-66v48h188v-48z" />
    <glyph glyph-name="U" unicode="U" horiz-adv-x="222" 
d="M104 -6q-15 0 -30 5.5t-27 16.5t-19.5 29t-7.5 43v611h57v-602q0 -30 9.5 -42.5t22.5 -12.5h6q13 0 22.5 12.5t9.5 42.5v602h57v-611q0 -25 -7.5 -43t-19.5 -29t-27 -16.5t-30 -5.5h-16z" />
    <glyph glyph-name="V" unicode="V" horiz-adv-x="213" 
d="M161 699h49l-66 -699h-73l-68 699h55l50 -539h2z" />
    <glyph glyph-name="W" unicode="W" horiz-adv-x="330" 
d="M55 0l-52 699h54l36 -505h2l46 505h47l52 -505h1l36 505h50l-52 -699h-57l-53 477l-47 -477h-63z" />
    <glyph glyph-name="X" unicode="X" horiz-adv-x="213" 
d="M136 359l74 -359h-59l-48 243l-45 -243h-55l73 376l-73 323h56l48 -206l44 206h57z" />
    <glyph glyph-name="Y" unicode="Y" horiz-adv-x="213" 
d="M135 266v-266h-57v266l-75 433h57l45 -303h2l46 303h57z" />
    <glyph glyph-name="Z" unicode="Z" horiz-adv-x="210" 
d="M200 0h-190v41l123 615h-105v43h163v-41l-124 -615h133v-43z" />
    <glyph glyph-name="a" unicode="a" 
d="M73 -3q-32 0 -44 23t-12 65v103q0 42 13.5 65.5t45.5 23.5h3q13 0 26 -6t26 -16v153q0 23 -8.5 34t-19.5 11h-6q-11 0 -19 -11t-8 -34v-117h-53v118q0 43 22 66t54 23h15q32 0 54 -23.5t22 -65.5v-409h-53v20q-14 -11 -28 -17t-27 -6h-3zM97 237q-11 0 -19 -11t-8 -34
v-111q0 -23 8 -34t19 -11h3q11 0 20 9.5t11 30.5v135q-2 14 -11 20t-17 6h-6z" />
    <glyph glyph-name="b" unicode="b" horiz-adv-x="200" 
d="M121 -3q-14 0 -28 9t-26 24l-6 -30h-43v699h53v-231q11 14 24.5 22t27.5 8h3q32 0 45.5 -23.5t13.5 -65.5v-324q0 -42 -14.5 -65t-46.5 -23h-3zM102 453q-11 0 -20.5 -12t-10.5 -34v-316q0 -23 10 -36.5t21 -13.5h3q11 0 19 11t8 34v322q0 23 -8.5 34t-19.5 11h-2z" />
    <glyph glyph-name="c" unicode="c" 
d="M131 291v117q0 23 -8 34t-19 11h-6q-11 0 -19.5 -11t-8.5 -34v-322q0 -23 8 -34t18 -11h8q11 0 19 11t8 34v120h53v-120q0 -43 -22 -66t-54 -23h-18q-29 0 -51 23t-22 66v323q0 42 22 65.5t54 23.5h15q32 0 54 -23t22 -66v-118h-53z" />
    <glyph glyph-name="d" unicode="d" horiz-adv-x="202" 
d="M78 -3q-32 0 -46.5 23t-14.5 65v324q0 42 13.5 65.5t45.5 23.5h3q13 0 26.5 -8t25.5 -22v231h53v-699h-43l-6 30q-12 -15 -26 -24t-28 -9h-3zM98 453q-11 0 -19.5 -11t-8.5 -34v-322q0 -23 8 -34t19 -11h3q11 0 21 13.5t10 36.5v316q-2 22 -11 34t-20 12h-2z" />
    <glyph glyph-name="e" unicode="e" 
d="M96 41h8q11 0 19 11t8 34v120h53v-120q0 -43 -22 -66t-54 -23h-18q-29 0 -51 23t-22 66v323q0 42 22 65.5t54 23.5h15q32 0 54 -23t22 -66v-173h-114v-150q0 -23 8 -34t18 -11zM131 273v135q0 23 -8 34t-19 11h-6q-11 0 -19.5 -11t-8.5 -34v-135h61z" />
    <glyph glyph-name="f" unicode="f" horiz-adv-x="159" 
d="M42 0v450h-25v45h25v122q0 21 7 39.5t21.5 30.5t36 16.5t50.5 -2.5v-42q-21 4 -41.5 -6.5t-20.5 -39.5v-118h62v-45h-62v-450h-53z" />
    <glyph glyph-name="g" unicode="g" horiz-adv-x="201" 
d="M184 495v-571q0 -43 -22 -66t-51 -23h-18q-32 0 -54 23t-22 66v47h53v-47q0 -23 8 -34t19 -11h8q10 0 18 11t8 34v101q-13 -13 -26 -20.5t-26 -7.5h-3q-32 0 -45.5 23t-13.5 65v324q0 42 14.5 65.5t46.5 23.5h3q12 0 25 -7.5t25 -19.5l10 24h43zM100 41q11 0 21 13.5
t10 36.5v316q-2 22 -11 34t-20 12h-3q-11 0 -19 -11t-8 -34v-322q0 -23 8 -34t19 -11h3z" />
    <glyph glyph-name="h" unicode="h" horiz-adv-x="204" 
d="M105 453q-11 0 -21.5 -14t-10.5 -37v-402h-53v699h53v-233q11 14 25 23t28 9h3q32 0 45.5 -23.5t13.5 -65.5v-409h-53v408q0 23 -8 34t-19 11h-3z" />
    <glyph glyph-name="i" unicode="i" horiz-adv-x="90" 
d="M73 495v-495h-53v495h53zM73 617v-81h-53v81h53z" />
    <glyph glyph-name="j" unicode="j" horiz-adv-x="131" 
d="M113 619v-84h-53v84h53zM113 495v-572q0 -42 -22.5 -65t-72.5 -23v44q19 0 30.5 10.5t11.5 33.5v572h53z" />
    <glyph glyph-name="k" unicode="k" horiz-adv-x="196" 
d="M105 258l89 -258h-54l-68 197v-197h-52v699h52v-387l71 183h51z" />
    <glyph glyph-name="l" unicode="l" horiz-adv-x="89" 
d="M20 699h53v-699h-53v699z" />
    <glyph glyph-name="m" unicode="m" horiz-adv-x="318" 
d="M104 453q-11 0 -21.5 -13t-11.5 -34v-406h-53v495h53v-28q12 14 25.5 22.5t27.5 8.5h3q39 0 53 -39q13 17 28.5 28t31.5 11h3q32 0 45.5 -23.5t13.5 -65.5v-409h-53v408q0 23 -8 34t-19 11h-3q-11 0 -21.5 -13.5t-10.5 -36.5v-403h-53v408q0 23 -8.5 34t-19.5 11h-2z" />
    <glyph glyph-name="n" unicode="n" horiz-adv-x="203" 
d="M104 453q-11 0 -21.5 -13t-11.5 -34v-406h-53v495h53v-28q12 14 25.5 22.5t27.5 8.5h3q32 0 46 -23.5t14 -65.5v-409h-53v408q0 23 -8.5 34t-19.5 11h-2z" />
    <glyph glyph-name="o" unicode="o" 
d="M93 -3q-32 0 -54 23t-22 65v324q0 42 22 65.5t54 23.5h15q32 0 54 -23.5t22 -65.5v-324q0 -42 -22 -65t-54 -23h-15zM98 453q-11 0 -19.5 -11t-8.5 -34v-322q0 -23 8.5 -34t19.5 -11h6q11 0 19 11t8 34v322q0 23 -8 34t-19 11h-6z" />
    <glyph glyph-name="p" unicode="p" horiz-adv-x="202" 
d="M126 498q32 0 46.5 -23.5t14.5 -65.5v-324q0 -42 -13.5 -65t-45.5 -23h-3q-14 0 -27.5 8t-24.5 22v-192h-53v660h43l6 -31q12 15 26 24.5t28 9.5h3zM107 41q11 0 19 11t8 34v322q0 23 -8 34t-19 11h-3q-11 0 -21 -13.5t-10 -36.5v-317q1 -20 10.5 -32.5t20.5 -12.5h3z
" />
    <glyph glyph-name="q" unicode="q" horiz-adv-x="202" 
d="M81 498q14 0 28 -9.5t26 -24.5l6 31h43v-660h-53v192q-12 -14 -25.5 -22t-26.5 -8h-3q-32 0 -45.5 23t-13.5 65v324q0 42 14.5 65.5t46.5 23.5h3zM100 41q11 0 20 12.5t11 32.5v317q0 23 -10 36.5t-21 13.5h-3q-11 0 -19 -11t-8 -34v-322q0 -23 8 -34t19 -11h3z" />
    <glyph glyph-name="r" unicode="r" horiz-adv-x="202" 
d="M104 453q-11 0 -21.5 -13t-11.5 -34v-406h-53v495h53v-28q12 14 25.5 22.5t27.5 8.5h3q35 0 49 -29q11 -24 11 -60v-118h-53v117q0 23 -8.5 34t-19.5 11h-2z" />
    <glyph glyph-name="s" unicode="s" 
d="M131 300v108q0 22 -8.5 33.5t-19.5 11.5h-5q-11 0 -19.5 -11.5t-8.5 -33.5v-55q0 -22 8.5 -39t21 -32t27.5 -29.5t27.5 -30t21 -34.5t8.5 -43v-60q0 -42 -22.5 -65t-52.5 -23h-15q-32 0 -54.5 23t-22.5 65v110h48v-109q0 -22 8.5 -33.5t21.5 -11.5h7q12 0 20.5 11.5
t8.5 33.5v56q0 31 -18 53t-39 44t-39 47.5t-18 62.5v60q0 42 22 65.5t54 23.5h9q32 0 54.5 -23.5t22.5 -65.5v-109h-48z" />
    <glyph glyph-name="t" unicode="t" horiz-adv-x="138" 
d="M86 657v-162h42v-45h-42v-365q0 -24 11 -36t31 -8v-43q-51 -6 -73 19.5t-22 67.5v365h-25v45h25v157z" />
    <glyph glyph-name="u" unicode="u" horiz-adv-x="202" 
d="M99 41q11 0 22 14.5t11 37.5v402h53v-495h-53v28q-13 -14 -26.5 -22.5t-27.5 -8.5h-3q-32 0 -45.5 23t-13.5 65v410h53v-409q0 -23 8 -34t19 -11h3z" />
    <glyph glyph-name="v" unicode="v" horiz-adv-x="178" 
d="M132 495h44l-54 -495h-65l-55 495h49l39 -382h2z" />
    <glyph glyph-name="w" unicode="w" horiz-adv-x="308" 
d="M52 0l-50 495h49l34 -358h2l46 358h47l46 -358h1l34 358h45l-50 -495h-59l-45 380h-1l-41 -380h-58z" />
    <glyph glyph-name="x" unicode="x" horiz-adv-x="195" 
d="M121 255l72 -255h-52l-46 174l-45 -174h-48l68 250l-67 245h52l42 -162l43 162h48z" />
    <glyph glyph-name="y" unicode="y" horiz-adv-x="179" 
d="M133 495h44l-71 -660h-52l20 165l-72 495h48l42 -346h2z" />
    <glyph glyph-name="z" unicode="z" horiz-adv-x="170" 
d="M167 0h-165v43l111 409h-100v43h152v-43l-111 -409h113v-43z" />
    <glyph glyph-name="zero" unicode="0" horiz-adv-x="220" 
d="M102 -6q-15 0 -30 5.5t-27 16.5t-19.5 29t-7.5 43v522q0 25 7.5 43t19.5 29.5t27 17t30 5.5h16q15 0 30 -5.5t27 -17t19.5 -29.5t7.5 -43v-522q0 -25 -7.5 -43t-19.5 -29t-27 -16.5t-30 -5.5h-16zM107 657q-13 0 -22.5 -13t-9.5 -42v-505q0 -30 9.5 -42.5t22.5 -12.5h6
q13 0 22.5 12.5t9.5 42.5v505q0 29 -9.5 42t-22.5 13h-6z" />
    <glyph glyph-name="one" unicode="1" horiz-adv-x="157" 
d="M70 0v613q-11 -5 -29 -9.5t-31 -4.5v44q22 0 43.5 16.5t26.5 39.5h47v-699h-57z" />
    <glyph glyph-name="two" unicode="2" horiz-adv-x="220" 
d="M18 417v193q0 25 7.5 43t19.5 29.5t27 17t30 5.5h10q15 0 30.5 -5.5t27.5 -17t19.5 -29.5t7.5 -43v-111q0 -33 -9 -61t-22.5 -57t-29.5 -60.5t-29.5 -71t-22.5 -88.5t-9 -113h127v-48h-184v48q0 69 9 121t22.5 92.5t29.5 72.5t29.5 60t22.5 55t9 59v94q0 30 -9.5 42.5
t-22.5 12.5h-6q-13 0 -22.5 -12.5t-9.5 -42.5v-185h-52z" />
    <glyph glyph-name="three" unicode="3" horiz-adv-x="220" 
d="M108 380q17 0 27 15t10 45v162q0 30 -9.5 42.5t-22.5 12.5h-6q-13 0 -22.5 -12.5t-9.5 -42.5v-186h-57v194q0 25 7.5 43t19.5 29.5t27 17t30 5.5h16q15 0 30 -5.5t27 -17t19.5 -29.5t7.5 -43v-164q0 -42 -18.5 -62t-43.5 -25q25 -5 43.5 -23t18.5 -59v-189
q0 -25 -7.5 -43t-19.5 -29.5t-27 -17t-30 -5.5h-16q-15 0 -30 5.5t-27 17t-19.5 29.5t-7.5 43v194h57v-186q0 -30 9.5 -42.5t22.5 -12.5h6q13 0 22.5 12.5t9.5 42.5v182q0 30 -10 45t-27 15h-21v42h21z" />
    <glyph glyph-name="four" unicode="4" horiz-adv-x="246" 
d="M226 155v-48h-33v-107h-49v107h-134v48l116 544h67v-544h33zM144 535h-2l-77 -379v-1h79v380z" />
    <glyph glyph-name="five" unicode="5" horiz-adv-x="220" 
d="M102 -6q-15 0 -30 5.5t-27 16.5t-19.5 29t-7.5 43v199h57v-190q0 -30 9.5 -42.5t22.5 -12.5h6q13 0 22.5 12.5t9.5 42.5v242q0 30 -9.5 42.5t-22.5 12.5h-6q-13 0 -22.5 -12.5t-9.5 -42.5v-6h-12v1h-45v365h182l-5 -48h-120v-247q10 20 25 29t30 9h8q23 0 43.5 -22
t20.5 -73v-259q0 -25 -7.5 -43t-19.5 -29t-27 -16.5t-30 -5.5h-16z" />
    <glyph glyph-name="six" unicode="6" horiz-adv-x="220" 
d="M102 -6q-15 0 -30 5.5t-27 16.5t-19.5 29t-7.5 43v522q0 25 7.5 43t19.5 29.5t27 17t30 5.5h12q15 0 30.5 -5.5t27.5 -17t19.5 -29.5t7.5 -43v-134h-54v126q0 30 -9.5 42.5t-22.5 12.5h-6q-13 0 -22.5 -12.5t-9.5 -42.5v-198q10 20 25 29t30 9h8q23 0 43.5 -22t20.5 -73
v-259q0 -25 -7.5 -43t-19.5 -29t-27 -16.5t-30 -5.5h-16zM75 97q0 -30 9.5 -42.5t22.5 -12.5h6q13 0 22.5 12.5t9.5 42.5v242q0 30 -9.5 42.5t-22.5 12.5h-6q-12 0 -21 -10.5t-11 -36.5v-250z" />
    <glyph glyph-name="seven" unicode="7" horiz-adv-x="190" 
d="M10 0l102 656h-105v43h163v-43l-102 -656h-58z" />
    <glyph glyph-name="eight" unicode="8" horiz-adv-x="220" 
d="M102 -6q-15 0 -30 5.5t-27 16.5t-19.5 29t-7.5 43v186q0 33 12.5 54t31.5 31q-19 10 -31.5 30.5t-12.5 54.5v166q0 25 7.5 43t19.5 29.5t27 17t30 5.5h16q15 0 30 -5.5t27 -17t19.5 -29.5t7.5 -43v-166q0 -34 -12.5 -54.5t-31.5 -30.5q19 -10 31.5 -31t12.5 -54v-186
q0 -25 -7.5 -43t-19.5 -29t-27 -16.5t-30 -5.5h-16zM107 341q-13 0 -22.5 -13t-9.5 -42v-189q0 -30 9.5 -42.5t22.5 -12.5h6q13 0 22.5 12.5t9.5 42.5v189q0 29 -9.5 42t-22.5 13h-6zM107 657q-13 0 -22.5 -13t-9.5 -42v-170q0 -29 9.5 -42t22.5 -13h6q13 0 22.5 13t9.5 42
v170q0 29 -9.5 42t-22.5 13h-6z" />
    <glyph glyph-name="nine" unicode="9" horiz-adv-x="220" 
d="M118 705q15 0 30 -5.5t27 -17t19.5 -29.5t7.5 -43v-522q0 -25 -7.5 -43t-19.5 -29t-27 -16.5t-30 -5.5h-12q-15 0 -30.5 5.5t-27.5 16.5t-19.5 29t-7.5 43v194h54v-186q0 -29 9.5 -41.5t22.5 -12.5h6q13 0 22.5 12t9.5 43v256q-10 -20 -25 -28.5t-30 -8.5h-8
q-23 0 -43.5 22t-20.5 72v200q0 25 7.5 43t19.5 29.5t27 17t30 5.5h16zM145 602q0 29 -9.5 42t-22.5 13h-6q-13 0 -22.5 -13t-9.5 -42v-183q0 -31 9.5 -43t22.5 -12h6q11 0 20.5 10t11.5 35v193z" />
    <glyph glyph-name="dollar" unicode="$" horiz-adv-x="220" 
d="M90 -5q-28 4 -50 26t-22 67v194h52v-185q0 -30 10.5 -42.5t24.5 -12.5h6q14 0 24 12.5t10 42.5v94q0 47 -20 83t-43.5 69.5t-43.5 70t-20 85.5v111q0 45 22 67t50 27v51h38v-52q27 -5 48 -26.5t21 -66.5v-193h-52v185q0 30 -9.5 42.5t-22.5 12.5h-6q-13 0 -22.5 -12.5
t-9.5 -42.5v-94q0 -48 20 -84t43.5 -69.5t43.5 -70t20 -84.5v-112q0 -47 -22.5 -68.5t-51.5 -24.5v-52h-38v52z" />
    <glyph glyph-name="D" unicode="D" horiz-adv-x="222" 
d="M20 0v699h100q15 0 30 -5t27 -16t19.5 -28.5t7.5 -42.5v-516q0 -25 -7.5 -42.5t-19.5 -28t-27 -15.5t-30 -5h-100zM77 651v-603h38q13 0 22.5 11t9.5 41v499q0 29 -9.5 40.5t-22.5 11.5h-38z" />
    <glyph glyph-name="fi" unicode="&#xfb01;" horiz-adv-x="211" 
d="M43 0v450h-25v45h25v122q0 21 7 39.5t21.5 30.5t36 16.5t50.5 -2.5v-42q-21 4 -41.5 -6.5t-20.5 -39.5v-118h98v-495h-53v450h-45v-450h-53z" />
    <glyph glyph-name="ellipsis" unicode="&#x2026;" horiz-adv-x="324" 
d="M88 0h-58v86h58v-86zM191 0h-58v86h58v-86zM294 0h-58v86h58v-86z" />
    <glyph glyph-name="exclam" unicode="!" horiz-adv-x="118" 
d="M79 119h-42l-7 312v268h57v-268zM88 0h-58v86h58v-86z" />
    <glyph glyph-name="period" unicode="." horiz-adv-x="118" 
d="M88 0h-58v86h58v-86z" />
    <glyph glyph-name="comma" unicode="," horiz-adv-x="100" 
d="M79 0l-23 -59h-24l15 59h-26v86h58v-86z" />
    <glyph glyph-name="colon" unicode=":" horiz-adv-x="118" 
d="M88 328h-58v87h58v-87zM88 0h-58v86h58v-86z" />
    <glyph glyph-name="semicolon" unicode=";" horiz-adv-x="126" 
d="M95 328h-58v87h58v-87zM96 0l-22 -59h-25l15 59h-26v86h58v-86z" />
    <glyph glyph-name="quotedblright" unicode="&#x201d;" horiz-adv-x="228" 
d="M95 612l-22 -59h-25l15 59h-26v87h58v-87zM198 612l-22 -59h-25l15 59h-26v87h58v-87z" />
    <glyph glyph-name="quotedblleft" unicode="&#x201c;" horiz-adv-x="228" 
d="M30 626l22 59h25l-15 -59h26v-87h-58v87zM133 626l22 59h25l-15 -59h26v-87h-58v87z" />
    <glyph glyph-name="quoteright" unicode="&#x2019;" horiz-adv-x="125" 
d="M95 595l-22 -59h-25l15 59h-26v86h58v-86z" />
    <glyph glyph-name="quoteleft" unicode="&#x2018;" horiz-adv-x="125" 
d="M30 626l22 59h25l-15 -59h26v-87h-58v87z" />
    <glyph glyph-name="question" unicode="?" horiz-adv-x="215" 
d="M18 417v193q0 25 7.5 43t19.5 29.5t27 17t30 5.5h10q15 0 30.5 -5.5t27.5 -17t19.5 -29.5t7.5 -43v-111q0 -34 -8 -61t-19 -52t-23 -50.5t-20.5 -56.5t-11.5 -70t5 -90h-57q-8 56 -5 98t11.5 74t20.5 57.5t23 50t19 50.5t8 59v94q0 30 -9.5 42.5t-22.5 12.5h-6
q-13 0 -22.5 -12.5t-9.5 -42.5v-185h-52zM121 0h-58v86h58v-86z" />
    <glyph glyph-name="bar" unicode="|" horiz-adv-x="103" 
d="M25 729h53v-759h-53v759z" />
    <glyph glyph-name="slash" unicode="/" horiz-adv-x="210" 
d="M159 699h48l-156 -699h-48z" />
    <glyph glyph-name="backslash" unicode="\" horiz-adv-x="210" 
d="M207 0h-48l-156 699h48z" />
    <glyph glyph-name="fraction" unicode="&#x2044;" horiz-adv-x="210" 
d="M159 699h48l-156 -699h-48z" />
    <glyph glyph-name="less" unicode="&#x3c;" horiz-adv-x="241" 
d="M221 6l-2 -1l-199 227v28l198 229l2 -1v-60l-1 -2l-150 -177v-4l150 -175l1 -2z" />
    <glyph glyph-name="greater" unicode="&#x3e;" horiz-adv-x="241" 
d="M20 67l1 2l150 176v3l-150 178l-1 2v59l2 2l199 -229v-29l-199 -226l-2 1v61z" />
    <glyph glyph-name="percent" unicode="%" horiz-adv-x="426" 
d="M315 699l-248 -699h41l249 699h-42zM86 304q-27 0 -46.5 20t-19.5 57v246q0 38 19.5 58t46.5 20h14q27 0 47 -20t20 -58v-246q0 -37 -20 -57t-47 -20h-14zM91 669q-11 0 -19.5 -10.5t-8.5 -33.5v-242q0 -23 8.5 -33t19.5 -10h6q11 0 19 10t8 33v242q0 23 -8 33.5
t-19 10.5h-6zM326 -6q-27 0 -47 20t-20 58v249q1 37 20.5 57t46.5 20h13q28 0 47.5 -20t19.5 -57v-249q0 -38 -19.5 -58t-47.5 -20h-13zM330 362q-11 0 -19.5 -10t-8.5 -33v-246q0 -23 8.5 -33t19.5 -10h6q11 0 19 10t8 33v246q0 23 -8 33t-19 10h-6z" />
    <glyph glyph-name="perthousand" unicode="&#x2030;" horiz-adv-x="594" 
d="M313 699l-248 -699h41l249 699h-42zM84 304q-27 0 -46.5 20t-19.5 57v246q0 38 19.5 58t46.5 20h14q27 0 47 -20t20 -58v-246q0 -37 -20 -57t-47 -20h-14zM89 669q-11 0 -19.5 -10.5t-8.5 -33.5v-242q0 -23 8.5 -33t19.5 -10h6q11 0 19 10t8 33v242q0 23 -8 33.5
t-19 10.5h-6zM324 -6q-27 0 -47 20t-20 58v249q1 37 20.5 57t46.5 20h13q28 0 47.5 -20t19.5 -57v-249q0 -38 -19.5 -58t-47.5 -20h-13zM328 362q-11 0 -19.5 -10t-8.5 -33v-246q0 -23 8.5 -33t19.5 -10h6q11 0 19 10t8 33v246q0 23 -8 33t-19 10h-6zM495 -6q-27 0 -46.5 20
t-19.5 58v249q0 37 19.5 57t46.5 20h14q27 0 47 -20t20 -57v-249q0 -38 -20 -58t-47 -20h-14zM500 362q-11 0 -19.5 -10t-8.5 -33v-246q0 -23 8.5 -33t19.5 -10h6q11 0 19 10t8 33v246q0 23 -8 33t-19 10h-6z" />
    <glyph glyph-name="guillemotleft" unicode="&#xab;" horiz-adv-x="223" 
d="M67 44l-47 200l46 201h50l-46 -202l48 -199h-51zM152 44l-47 200l46 201h50l-46 -202l48 -199h-51z" />
    <glyph glyph-name="guillemotright" unicode="&#xbb;" horiz-adv-x="223" 
d="M20 44l48 199l-46 202h50l46 -201l-47 -200h-51zM105 44l48 199l-46 202h50l46 -201l-47 -200h-51z" />
    <glyph glyph-name="asciicircum" unicode="^" horiz-adv-x="257" 
d="M186 414l-2 1l-54 196h-3l-53 -196l-2 -1h-51l-1 2l77 283h63l77 -283l-1 -2h-50z" />
    <glyph glyph-name="asterisk" unicode="*" horiz-adv-x="198" 
d="M66 538l-24 17l35 53l-59 18l9 28l58 -21l-1 66h30l-2 -66l59 21l9 -29l-59 -17l36 -53l-25 -17l-34 56z" />
    <glyph glyph-name="numbersign" unicode="#" horiz-adv-x="322" 
d="M277 216h-45l-18 -216h-52l19 216h-59l-19 -216h-51l18 216h-50l4 47h50l15 171h-49l4 47h49l19 218h52l-19 -218h59l19 218h51l-19 -218h47l-5 -47h-46l-15 -171h46zM126 263h59l15 171h-59z" />
    <glyph glyph-name="bracketleft" unicode="[" horiz-adv-x="178" 
d="M18 -56v811h115v-48h-58v-715h58v-48h-115z" />
    <glyph glyph-name="bracketright" unicode="]" horiz-adv-x="178" 
d="M45 -56v48h58v715h-58v48h115v-811h-115z" />
    <glyph glyph-name="parenleft" unicode="(" horiz-adv-x="208" 
d="M112 -36q-19 0 -36 5.5t-30 19t-20.5 35t-7.5 54.5v542q0 33 7.5 55t20.5 35.5t30 19t36 5.5h51v-48h-31q-32 0 -44.5 -23t-12.5 -72v-485q0 -49 12.5 -72t44.5 -23h31v-48h-51z" />
    <glyph glyph-name="parenright" unicode=")" horiz-adv-x="208" 
d="M45 -36v48h31q32 0 44.5 23t12.5 72v485q0 49 -12.5 72t-44.5 23h-31v48h50q19 0 36.5 -5.5t30.5 -19t20.5 -35.5t7.5 -55v-542q0 -33 -7.5 -54.5t-20.5 -35t-30.5 -19t-36.5 -5.5h-50z" />
    <glyph glyph-name="braceleft" unicode="{" horiz-adv-x="218" 
d="M10 380h11q24 0 35.5 17.5t11.5 47.5v217q0 54 25 78.5t59 24.5h26v-48h-6q-27 0 -37 -19.5t-10 -45.5v-206q0 -24 -7 -40.5t-18 -27t-25 -15.5t-29 -6q15 -1 29 -6t25 -16t18 -27.5t7 -40.5v-205q0 -27 10 -46t37 -19h6v-48h-26q-34 0 -59 24.5t-25 78.5v217
q0 29 -11.5 47t-35.5 18h-11v23v23z" />
    <glyph glyph-name="braceright" unicode="}" horiz-adv-x="218" 
d="M208 380v-46h-11q-24 0 -35.5 -18t-11.5 -47v-217q0 -54 -25.5 -78.5t-59.5 -24.5h-25v48h6q27 0 37 19t10 46v205q0 24 6.5 40.5t17.5 27.5t25 16t29 6q-15 1 -29 6t-25 15.5t-17.5 27t-6.5 40.5v206q0 26 -10 45.5t-37 19.5h-6v48h25q34 0 59.5 -24.5t25.5 -78.5v-217
q0 -30 11.5 -47.5t35.5 -17.5h11z" />
    <glyph glyph-name="at" unicode="@" horiz-adv-x="374" 
d="M172 -6q-42 0 -71 13t-47.5 34t-27 46.5t-8.5 50.5v312q0 25 8.5 51t27 47t47.5 34t71 13h30q42 0 71 -13t47.5 -34t27 -47t8.5 -51v-305q0 -24 -17.5 -37t-40.5 -15t-45 6.5t-30 27.5q-12 -16 -26.5 -25t-28.5 -9h-3q-32 0 -45.5 23t-13.5 65v224q0 42 14.5 65.5
t46.5 23.5h3q13 0 26 -8t24 -21v3l10 25h38v-325q0 -14 5.5 -20.5t12.5 -6.5t12.5 6.5t5.5 20.5v279q0 15 -3.5 33.5t-14.5 34t-31 26.5t-53 11h-30q-33 0 -53 -11t-31 -26.5t-14.5 -34t-3.5 -33.5v-305q0 -15 3.5 -33.5t14.5 -34t31 -26.5t53 -11h30q35 0 54 11.5t27 22.5
l39 -29q-15 -17 -43 -32.5t-77 -15.5h-30zM189 137q11 0 21 13.5t10 36.5v212q0 23 -10 36.5t-21 13.5h-3q-11 0 -19 -11t-8 -34v-222q0 -23 8 -34t19 -11h3z" />
    <glyph glyph-name="ampersand" unicode="&#x26;" horiz-adv-x="220" 
d="M133 380v-42h-21q-17 0 -27 -15t-10 -45v-182q0 -30 9.5 -42.5t22.5 -12.5h6q13 0 22.5 12.5t9.5 42.5v186h57v-194q0 -47 -23 -69t-51 -25v-51h-38v51q-28 4 -50 26t-22 68v189q0 41 18 59t43 23q-25 5 -43 25t-18 62v164q0 45 22 67.5t50 26.5v51h38v-51
q28 -3 51 -25.5t23 -68.5v-194h-57v186q0 30 -9.5 42.5t-22.5 12.5h-6q-13 0 -22.5 -12.5t-9.5 -42.5v-162q0 -30 10 -45t27 -15h21z" />
    <glyph glyph-name="tilde" unicode="&#x2dc;" horiz-adv-x="220" 
d="M30 633q16 30 43 30q17 0 32 -10t32 -10q14 0 27 14l26 -17q-10 -17 -21 -23.5t-24 -6.5q-18 0 -33 10t-29 10q-8 0 -15 -3t-15 -11z" />
    <glyph glyph-name="plus" unicode="+" horiz-adv-x="286" 
d="M121 369v129h44v-129h101v-39h-101v-128h-44v128h-101v39h101z" />
    <glyph glyph-name="hyphen" unicode="-" horiz-adv-x="241" 
d="M221 369v-39h-201v39h201z" />
    <glyph glyph-name="endash" unicode="&#x2013;" horiz-adv-x="326" 
d="M306 330h-286v39h286v-39z" />
    <glyph glyph-name="emdash" unicode="&#x2014;" horiz-adv-x="465" 
d="M446 330h-426v39h426v-39z" />
    <glyph glyph-name="underscore" unicode="_" horiz-adv-x="316" 
d="M296 0h-276v39h276v-39z" />
    <glyph glyph-name="equal" unicode="=" horiz-adv-x="296" 
d="M276 422v-39h-256v39h256zM276 320v-39h-256v39h256z" />
    <glyph glyph-name="bullet" unicode="&#x2022;" horiz-adv-x="137" 
d="M68 197q-22 0 -36 15.5t-14 35.5q0 23 15.5 37t34.5 14q23 0 37 -16t14 -35q0 -23 -16 -37t-35 -14z" />
    <glyph glyph-name="exclamdown" unicode="&#xa1;" horiz-adv-x="118" 
d="M88 612h-58v87h58v-87zM87 268v-268h-57v268l7 312h42z" />
    <glyph glyph-name="dagger" unicode="&#x2020;" horiz-adv-x="194" 
d="M123 699v-264h51v-45h-51v-555h-53v555h-50v45h50v264h53z" />
    <glyph glyph-name="daggerdbl" unicode="&#x2021;" horiz-adv-x="194" 
d="M123 699v-264h51v-45h-51v-247h51v-44h-51v-264h-53v264h-50v44h50v247h-50v45h50v264h53z" />
    <glyph glyph-name="guilsinglright" unicode="&#x203a;" horiz-adv-x="138" 
d="M20 44l48 199l-46 202h50l46 -201l-47 -200h-51z" />
    <glyph glyph-name="guilsinglleft" unicode="&#x2039;" horiz-adv-x="138" 
d="M67 44l-47 200l46 201h50l-46 -202l48 -199h-51z" />
    <glyph glyph-name="circumflex" unicode="&#x2c6;" horiz-adv-x="206" 
d="M129 677l57 -86h-51l-33 59l-32 -59h-50l57 86h52z" />
    <glyph glyph-name="degree" unicode="&#xb0;" horiz-adv-x="124" 
d="M62 608q-19 0 -32 13.5t-13 31.5q0 19 13 32.5t32 13.5t32 -13.5t13 -32.5q0 -18 -13 -31.5t-32 -13.5zM62 685q-14 0 -23 -9t-9 -23q0 -13 9 -22t23 -9q13 0 22.5 9t9.5 22q0 14 -9.5 23t-22.5 9z" />
    <glyph glyph-name="quotesingle" unicode="'" horiz-adv-x="125" 
d="M95 612l-22 -59h-25l15 59h-26v87h58v-87z" />
    <glyph glyph-name="quotedbl" unicode="&#x22;" horiz-adv-x="228" 
d="M95 612l-22 -59h-25l15 59h-26v87h58v-87zM198 612l-22 -59h-25l15 59h-26v87h58v-87z" />
    <glyph glyph-name="quotesinglbase" unicode="&#x201a;" horiz-adv-x="125" 
d="M95 0l-22 -59h-25l15 59h-26v86h58v-86z" />
    <glyph glyph-name="quotedblbase" unicode="&#x201e;" horiz-adv-x="228" 
d="M95 0l-22 -59h-25l15 59h-26v87h58v-87zM198 0l-22 -59h-25l15 59h-26v87h58v-87z" />
    <glyph glyph-name="asciitilde" unicode="~" horiz-adv-x="289" 
d="M20 234q15 26 30.5 38.5t37.5 12.5q13 0 25 -5.5t24 -12t24 -12t25 -5.5q14 0 24 7t23 24l36 -27q-15 -29 -31.5 -40.5t-40.5 -11.5q-13 0 -26 5.5t-25.5 12.5t-24 12.5t-21.5 5.5q-14 0 -24.5 -7t-23.5 -25z" />
    <glyph glyph-name="acute" unicode="&#xb4;" horiz-adv-x="152" 
d="M30 591l42 86h50l-57 -86h-35z" />
    <glyph glyph-name="grave" unicode="`" horiz-adv-x="152" 
d="M87 591l-57 86h50l42 -86h-35z" />
    <glyph glyph-name="dieresis" unicode="&#xa8;" horiz-adv-x="169" 
d="M68 603h-38v67h38v-67zM139 603h-38v67h38v-67z" />
    <glyph glyph-name="ring" unicode="&#x2da;" horiz-adv-x="180" 
d="M89 574q-23 0 -41 17.5t-18 41.5q0 25 17.5 43t40.5 18q25 0 43.5 -17.5t18.5 -43.5q0 -23 -17.5 -41t-43.5 -18zM89 664q-11 0 -20.5 -9t-9.5 -22q0 -11 9.5 -20.5t20.5 -9.5q12 0 21.5 9.5t9.5 20.5q0 13 -9.5 22t-21.5 9z" />
    <glyph glyph-name="caron" unicode="&#x2c7;" horiz-adv-x="226" 
d="M87 593l-57 86h50l32 -60l33 60h51l-57 -86h-52z" />
    <glyph glyph-name="breve" unicode="&#x2d8;" horiz-adv-x="188" 
d="M63 668q0 -11 9 -20.5t21 -9.5t21.5 9.5t9.5 20.5h34q0 -25 -19 -44t-47 -19q-24 0 -43 18.5t-19 44.5h33z" />
    <glyph glyph-name="hungarumlaut" unicode="&#x2dd;" horiz-adv-x="222" 
d="M100 589l42 86h50l-57 -86h-35zM30 589l42 86h50l-57 -86h-35z" />
    <glyph glyph-name="dotaccent" unicode="&#x2d9;" horiz-adv-x="98" 
d="M68 604h-38v66h38v-66z" />
    <glyph glyph-name="ogonek" unicode="&#x2db;" horiz-adv-x="156" 
d="M126 -64q-8 -17 -24 -24.5t-32 -6t-28 13t-12 31.5q0 28 28 50h42q-17 -6 -28 -19.5t-10 -24.5q0 -10 5 -15.5t12 -6.5t15 3t13 12z" />
    <glyph glyph-name="cedilla" unicode="&#xb8;" horiz-adv-x="179" 
d="M30 -91l6 26q9 -7 22.5 -10t25 -1.5t19.5 7.5t7 18q-1 14 -15 18t-25 -4l-12 4l16 33h32l-8 -21q17 8 34 -0.5t17 -28.5q0 -24 -14.5 -37t-34.5 -17t-40 0t-30 13z" />
    <glyph glyph-name="B" unicode="B" horiz-adv-x="219" 
d="M204 426q0 -32 -10 -47.5t-25 -20.5q15 -4 25 -19.5t10 -47.5v-202q0 -23 -7.5 -40t-19.5 -28t-27 -16t-30 -5h-100v699h100q15 0 30 -5.5t27 -17t19.5 -29.5t7.5 -43v-178zM147 287q0 50 -27 50h-43v-289h38q13 0 22.5 11.5t9.5 37.5v190zM120 380q27 0 27 50v166
q0 29 -9.5 42t-22.5 13h-38v-271h43z" />
    <glyph glyph-name="C" unicode="C" horiz-adv-x="220" 
d="M102 -6q-15 0 -30 5.5t-27 16.5t-19.5 29t-7.5 43v522q0 25 7.5 43t19.5 29.5t27 17t30 5.5h16q15 0 30 -5.5t27 -17t19.5 -29.5t7.5 -43v-193h-57v185q0 30 -9.5 42.5t-22.5 12.5h-6q-13 0 -22.5 -12.5t-9.5 -42.5v-505q0 -30 9.5 -42.5t22.5 -12.5h6q13 0 22.5 12.5
t9.5 42.5v186h57v-195q0 -25 -7.5 -43t-19.5 -29t-27 -16.5t-30 -5.5h-16z" />
    <glyph glyph-name="A" unicode="A" horiz-adv-x="213" 
d="M137 194h-67l-18 -194h-49l66 699h73l68 -699h-55zM74 237h59l-28 301h-2z" />
    <glyph glyph-name="plusminus" unicode="&#xb1;" horiz-adv-x="286" 
d="M121 444v129h44v-129h101v-39h-101v-128h-44v128h-101v39h101zM235 73h-186v39h186v-39z" />
    <glyph glyph-name="dotlessi" unicode="&#x131;" horiz-adv-x="90" 
d="M73 495v-495h-53v495h53z" />
    <glyph glyph-name="periodcentered" unicode="&#xb7;" horiz-adv-x="118" 
d="M88 204h-58v86h58v-86z" />
    <glyph glyph-name="macron" unicode="&#xaf;" horiz-adv-x="190" 
d="M156 617h-126v39h126v-39z" />
    <glyph glyph-name="E" unicode="E" horiz-adv-x="182" 
d="M77 651v-280h70v-43h-70v-280h95v-48h-152v699h148v-48h-91z" />
    <glyph glyph-name="F" unicode="F" horiz-adv-x="178" 
d="M77 651v-280h70v-43h-70v-328h-57v699h148v-48h-91z" />
    <glyph glyph-name="G" unicode="G" horiz-adv-x="220" 
d="M102 -6q-15 0 -30 5.5t-27 16.5t-19.5 29t-7.5 43v522q0 25 7.5 43t19.5 29.5t27 17t30 5.5h16q15 0 30 -5.5t27 -17t19.5 -29.5t7.5 -43v-193h-57v185q0 30 -9.5 42.5t-22.5 12.5h-6q-13 0 -22.5 -12.5t-9.5 -42.5v-505q0 -30 9.5 -42.5t22.5 -12.5h6q13 0 22.5 12.5
t9.5 42.5v138h-34v48h91v-283h-28l-7 24q-30 -30 -58 -30h-7z" />
    <glyph glyph-name="_0007" horiz-adv-x="0" 
 />
    <glyph glyph-name="questiondown" unicode="&#xbf;" horiz-adv-x="215" 
d="M197 116v-193q0 -25 -7.5 -43t-19.5 -29t-27 -16.5t-30 -5.5h-10q-15 0 -30.5 5.5t-27.5 16.5t-19.5 29t-7.5 43v112q0 33 8 60t19 52.5t23 51t20.5 56.5t11 70t-4.5 90h57q7 -57 4.5 -98.5t-11 -74t-20.5 -58t-23 -49.5t-19 -50t-8 -59v-94q0 -31 9.5 -43t22.5 -12h6
q13 0 22.5 12.5t9.5 41.5v185h52zM94 534h58v-87h-58v87z" />
    <glyph glyph-name="paragraph" unicode="&#xb6;" horiz-adv-x="300" 
d="M237 656h-66v-821h-43v564q-27 0 -47.5 13.5t-34.5 34.5t-21 48t-7 54t7 54t21 48t34.5 34.5t47.5 13.5h152v-864h-43v821z" />
    <glyph glyph-name="logicalnot" unicode="&#xac;" horiz-adv-x="306" 
d="M286 230h-42v100h-224v39h266v-139z" />
    <glyph glyph-name="Thorn" unicode="&#xde;" horiz-adv-x="211" 
d="M77 699v-101h40q32 0 54 -23t22 -65v-324q0 -42 -22 -65.5t-54 -23.5h-40v-97h-57v699h57zM77 554v-412h35q11 0 19 11t8 34v322q0 23 -8 34t-19 11h-35z" />
    <glyph glyph-name="thorn" unicode="&#xfe;" horiz-adv-x="208" 
d="M77 699v-201h40q32 0 54 -23.5t22 -65.5v-324q0 -42 -22 -65t-54 -23h-40v-162h-57v864h57zM77 453v-412h35q11 0 19 11t8 34v322q0 23 -8 34t-19 11h-35z" />
    <glyph glyph-name="copyright" unicode="&#xa9;" horiz-adv-x="492" 
d="M17 348q0 72 9.5 136t35.5 111.5t72 75t118 27.5t116.5 -27.5t68.5 -75t32 -111.5t8 -136t-8 -136t-32 -111.5t-68.5 -75t-116.5 -27.5t-118 27.5t-72 75t-35.5 111.5t-9.5 136zM52 348q0 -65 7 -121.5t28 -99.5t60 -67.5t104 -24.5q64 0 102 24.5t58 67.5t25.5 99.5
t5.5 121.5q0 64 -5.5 121t-25.5 100t-58 67.5t-102 24.5q-65 0 -104 -24.5t-60 -67.5t-28 -100t-7 -121zM282 394v77q0 23 -8 34t-19 11h-6q-11 0 -19.5 -11t-8.5 -34v-242q0 -23 8 -34t18 -11h8q11 0 19 11t8 34v80h53v-80q0 -43 -22 -66t-54 -23h-18q-29 0 -51 23t-22 66
v243q0 42 22 65.5t54 23.5h15q32 0 54 -23t22 -66v-78h-53z" />
    <glyph glyph-name="registered" unicode="&#xae;" horiz-adv-x="316" 
d="M20 526q0 37 8 69.5t25 57t43.5 38.5t63.5 14t63 -14t42 -38.5t23.5 -57t7.5 -69.5t-7.5 -69.5t-23.5 -57t-42 -38.5t-63 -14t-63.5 14t-43.5 38.5t-25 57t-8 69.5zM45 526q0 -32 6 -61t19.5 -50.5t35.5 -34t54 -12.5q33 0 54 12.5t33.5 34t17.5 50.5t5 61t-5 60.5
t-17.5 50t-33.5 34t-54 12.5q-32 0 -54 -12.5t-35.5 -34t-19.5 -50t-6 -60.5zM205 555q0 -26 -17 -35q17 -5 17 -33v-56h-26v49q0 26 -16 26h-17v-75h-27v196h50q36 0 36 -52v-20zM164 533q15 0 15 27v12q0 16 -5 22.5t-12 6.5h-16v-68h18z" />
    <glyph glyph-name="florin" unicode="&#x192;" horiz-adv-x="217" 
d="M135 450v-533q0 -21 -7 -39.5t-21.5 -30.5t-36 -16.5t-50.5 2.5v42q10 -2 21 -0.5t20 7t15 15.5t6 24v529h-60v45h60v122q0 21 7 39.5t21.5 30.5t36 16.5t50.5 -2.5v-42q-21 4 -41.5 -6.5t-20.5 -39.5v-118h60v-45h-60z" />
    <glyph glyph-name="OE" unicode="&#x152;" horiz-adv-x="324" 
d="M102 -6q-15 0 -30 5.5t-27 16.5t-19.5 29t-7.5 43v522q0 25 7.5 43t19.5 29.5t27 17t30 5.5h16h6h176v-51h-106q8 -21 8 -44v-239h77v-43h-77v-240q0 -24 -8 -43h110v-51h-202zM107 657q-13 0 -22.5 -13t-9.5 -42v-505q0 -30 9.5 -42.5t22.5 -12.5h6q13 0 22.5 12.5
t9.5 42.5v505q0 29 -9.5 42t-22.5 13h-6z" />
    <glyph glyph-name="oe" unicode="&#x153;" horiz-adv-x="314" 
d="M93 -3q-32 0 -54 23t-22 65v324q0 42 22 65.5t54 23.5h15q28 0 49 -19q22 19 50 19h15q32 0 54.5 -23t22.5 -66v-173h-115v-150q0 -23 8.5 -34t17.5 -11h8q11 0 19.5 11t8.5 34v120h53v-120q0 -43 -22.5 -66t-54.5 -23h-17q-26 0 -47 19q-20 -19 -50 -19h-15zM98 453
q-11 0 -19.5 -11t-8.5 -34v-322q0 -23 8.5 -34t19.5 -11h6q11 0 19 11t8 34v323v4q-2 20 -9.5 30t-17.5 10h-6zM184 409v-136h62v135q0 23 -8.5 34t-19.5 11h-5q-11 0 -19.5 -10t-9.5 -30v-4z" />
    <glyph glyph-name="Euro" unicode="&#x20ac;" horiz-adv-x="253" 
d="M162 303h-55v-206q0 -30 9.5 -42.5t22.5 -12.5h7q13 0 22.5 12.5t9.5 42.5v186h57v-195q0 -25 -7.5 -43t-19.5 -29t-27.5 -16.5t-30.5 -5.5h-15q-15 0 -30.5 5.5t-27.5 16.5t-19.5 29t-7.5 43v215h-30v24h30v45h-30v25h30v213q0 25 7.5 43t19.5 29.5t27.5 17t30.5 5.5h15
q15 0 30.5 -5.5t27.5 -17t19.5 -29.5t7.5 -43v-193h-57v185q0 30 -9.5 42.5t-22.5 12.5h-7q-13 0 -22.5 -12.5t-9.5 -42.5v-205h55v-25h-55v-45h55v-24z" />
    <glyph glyph-name="trademark" unicode="&#x2122;" horiz-adv-x="257" 
d="M239 699v-307h-25v222l-26 -222h-21l-24 222h-1v-222h-25v307h40l22 -227l23 227h37zM101 671h-25v-279h-32v279h-25v28h82v-28z" />
    <glyph glyph-name="cent" unicode="&#xa2;" 
d="M131 291v117q0 23 -8 34t-19 11h-6q-11 0 -19.5 -11t-8.5 -34v-322q0 -23 8 -34t18 -11h8q11 0 19 11t8 34v120h53v-120q0 -38 -18 -60.5t-45 -27.5v-57h-38v56q-27 2 -46.5 25t-19.5 64v323q0 38 18.5 61.5t47.5 26.5v57h38v-57q27 -5 45 -27.5t18 -60.5v-118h-53z" />
    <glyph glyph-name="mu" unicode="&#xb5;" horiz-adv-x="202" 
d="M185 0h-53v28q-13 -14 -26.5 -22.5t-27.5 -8.5h-3h-6v-162h-53v660h53v-409q0 -23 8 -34t19 -11h3q11 0 22 14.5t11 37.5v402h53v-495z" />
    <glyph glyph-name="AE" unicode="&#xc6;" horiz-adv-x="301" 
d="M195 651v-280h71v-43h-71v-280h96v-48h-153v194h-70l-16 -194h-49l66 699h217v-48h-91zM71 237h67v414h-32z" />
    <glyph glyph-name="ae" unicode="&#xe6;" horiz-adv-x="314" 
d="M73 -3q-32 0 -44 23t-12 65v103q0 42 13.5 65.5t45.5 23.5h3q13 0 26 -6t26 -16v153q0 23 -8.5 34t-19.5 11h-6q-11 0 -19 -11t-8 -34v-117h-53v118q0 43 22 66t54 23h15q28 0 49 -19q22 19 50 19h15q32 0 54.5 -23t22.5 -66v-173h-115v-150q0 -23 8.5 -34t17.5 -11h8
q11 0 19.5 11t8.5 34v120h53v-120q0 -43 -22.5 -66t-54.5 -23h-17q-18 0 -34.5 9t-26.5 26q-15 -15 -33 -25t-35 -10h-3zM97 237q-11 0 -19 -11t-8 -34v-111q0 -23 8 -34t19 -11h3q11 0 21 11t10 34v130q-2 14 -11 20t-17 6h-6zM184 409v-1v-135h62v135q0 23 -8.5 34
t-19.5 11h-5q-11 0 -19.5 -10t-9.5 -30v-4z" />
    <glyph glyph-name="divide" unicode="&#xf7;" horiz-adv-x="346" 
d="M328 330h-310v39h310v-39zM202 402h-58v86h58v-86zM202 209h-58v87h58v-87z" />
    <glyph glyph-name="currency" unicode="&#xa4;" horiz-adv-x="347" 
d="M260 239q-37 -29 -86 -29t-87 30l-40 -40l-29 29l40 40q-14 18 -21.5 40t-7.5 47q0 23 7.5 45t21.5 40l-40 40l29 29l41 -40q18 14 40 22t46 8q47 0 85 -30l41 41l29 -29l-41 -41q30 -38 30 -85q0 -25 -7.5 -47t-21.5 -41l40 -40l-29 -29zM73 356q0 -45 29 -73.5
t72 -28.5q21 0 39 7.5t31.5 21t21.5 32.5t8 41q0 21 -8 39t-21.5 31.5t-31.5 21.5t-39 8t-39.5 -8t-32 -21.5t-21.5 -31.5t-8 -39z" />
    <glyph glyph-name="sterling" unicode="&#xa3;" horiz-adv-x="266" 
d="M18 302h46v308q0 25 7.5 43t19.5 29.5t27 17t30 5.5h16q15 0 30 -5.5t27 -17t19.5 -29.5t7.5 -43v-193h-57v185q0 30 -9.5 42.5t-22.5 12.5h-6q-13 0 -22.5 -12.5t-9.5 -42.5v-300h127v-49h-127v-101q0 -43 -5 -67.5t-11 -35.5h143v-49h-201v49h1q8 11 12 34t4 68v102
h-46v49z" />
    <glyph glyph-name="yen" unicode="&#xa5;" horiz-adv-x="216" 
d="M79 190v48h-71v39h69l-73 422h57l46 -303h2l45 303h57l-72 -422h65v-39h-67l-1 -48h68v-39h-68v-151h-57v151h-71v39h71z" />
    <glyph glyph-name="Lslash" unicode="&#x141;" horiz-adv-x="218" 
d="M123 699v-290l63 45l20 -34l-83 -60v-317h86v-43h-143v320l-43 -31l-20 34l63 45v331h57z" />
    <glyph glyph-name="lslash" unicode="&#x142;" horiz-adv-x="174" 
d="M50 293l-27 -19l-20 34l47 34v357h53v-319l48 35l20 -35l-68 -49v-331h-53v293z" />
    <glyph glyph-name="Dcroat" unicode="&#x110;" horiz-adv-x="248" 
d="M45 0v330h-25v40h25v329h100q15 0 30.5 -5t27.5 -16t19.5 -28.5t7.5 -42.5v-516q0 -25 -7.5 -42.5t-19.5 -28t-27.5 -15.5t-30.5 -5h-100zM102 651v-281h26v-40h-26v-282h39q13 0 22.5 11t9.5 41v499q0 29 -9.5 40.5t-22.5 11.5h-39z" />
    <glyph glyph-name="multiply" unicode="&#xd7;" horiz-adv-x="246" 
d="M92 350l-89 89l31 31l89 -89l89 89l31 -31l-89 -89l89 -89l-31 -31l-89 89l-89 -89l-31 31z" />
    <glyph glyph-name="brokenbar" unicode="&#xa6;" horiz-adv-x="103" 
d="M25 293h53v-323h-53v323zM25 729h53v-321h-53v321z" />
    <glyph glyph-name="section" unicode="&#xa7;" 
d="M131 469v146q0 22 -8.5 33.5t-19.5 11.5h-5q-11 0 -19.5 -11.5t-8.5 -33.5v-93q0 -22 8.5 -39t21 -32t27.5 -29.5t27.5 -30t21 -34.5t8.5 -43v-75q0 -42 -21.5 -64.5t-50.5 -23.5q12 -13 24.5 -26t23 -27.5t17.5 -31.5t7 -38v-111q0 -42 -22.5 -65t-52.5 -23h-15
q-32 0 -54.5 23t-22.5 65v161h48v-160q0 -22 8.5 -33.5t21.5 -11.5h7q12 0 20.5 11.5t8.5 33.5v107q0 31 -18 53t-39 44t-39 47.5t-18 62.5v81q0 38 18.5 60.5t45.5 27.5q-11 12 -22.5 24t-20.5 26t-15 30.5t-6 36.5v98q0 42 22 65.5t54 23.5h9q32 0 54.5 -23.5t22.5 -65.5
v-147h-48zM131 317q-1 6 -2 11.5t-3 10.5q-8 18 -23 18h-5q-11 0 -19.5 -11.5t-8.5 -33.5v-76q0 -18 6 -33q8 -8 19 -8h7q11 0 19 9.5t10 28.5v79v5z" />
    <glyph glyph-name="_0024" horiz-adv-x="0" 
 />
    <glyph glyph-name="twosuperior" unicode="&#xb2;" horiz-adv-x="117" 
d="M17 575v88q0 22 11 32t25 10h7q14 0 26 -10t12 -32v-52q0 -21 -8.5 -39t-18.5 -39t-18.5 -49t-8.5 -70h54v-22h-81v21q0 45 8.5 74.5t18.5 51t18.5 38.5t8.5 38v44q0 14 -4.5 19t-10.5 5h-1q-5 0 -9.5 -5t-4.5 -19v-84h-24z" />
    <glyph glyph-name="threesuperior" unicode="&#xb3;" horiz-adv-x="116" 
d="M57 562q16 0 16 26v71q0 14 -4.5 18.5t-10.5 4.5h-2q-5 0 -9 -4.5t-4 -17.5v-82h-26v85q0 22 11.5 32t25.5 10h7q14 0 26 -10t12 -32v-72q0 -18 -8 -27t-19 -11q11 -2 19 -10.5t8 -26.5v-83q0 -22 -12 -31.5t-26 -9.5h-7q-14 0 -25.5 9.5t-11.5 31.5v86h26v-82
q0 -14 4 -18.5t10 -4.5h2q5 0 9.5 4.5t4.5 18.5v80q0 26 -16 26h-10v19h10z" />
    <glyph glyph-name="onesuperior" unicode="&#xb9;" horiz-adv-x="89" 
d="M42 392v268q-5 -2 -13 -4.5t-13 -2.5v21q10 0 19 7.5t11 17.5h23v-307h-27z" />
    <glyph glyph-name="ordfeminine" unicode="&#xaa;" horiz-adv-x="139" 
d="M52 392q-20 0 -27.5 14.5t-7.5 40.5v64q0 26 8.5 41t28.5 15h2q16 0 32 -14v95q0 14 -6 21.5t-12 7.5h-3q-6 0 -11 -7.5t-5 -21.5v-73h-34v74q0 27 14 41.5t34 14.5h9q20 0 34.5 -15t14.5 -42v-254h-35v12q-17 -14 -34 -14h-2zM67 542q-16 0 -16 -30v-66q0 -14 5.5 -21.5
t11.5 -7.5q7 0 12.5 6t7.5 19v81q0 11 -6 15t-12 4h-3z" />
    <glyph glyph-name="ordmasculine" unicode="&#xba;" horiz-adv-x="117" 
d="M55 392q-14 0 -25.5 9.5t-11.5 32.5v229q0 22 11.5 32t25.5 10h7q14 0 25.5 -10t11.5 -32v-229q0 -23 -11.5 -32.5t-25.5 -9.5h-7zM57 682q-13 0 -13 -23v-222q0 -23 13 -23h3q13 0 13 23v222q0 23 -13 23h-3z" />
    <glyph glyph-name="onequarter" unicode="&#xbc;" horiz-adv-x="271" 
d="M220 699h28l-196 -699h-28zM229 68v-22h-14l1 -46h-23l-1 46h-58l-1 22l49 237h32l1 -237h14zM62 392v268q-5 -2 -13 -4.5t-14 -2.5v21q10 0 19.5 7.5t11.5 17.5h22v-307h-26zM192 234h-1l-33 -165v-1h34v166z" />
    <glyph glyph-name="onehalf" unicode="&#xbd;" horiz-adv-x="277" 
d="M220 699h28l-196 -699h-28zM62 392v268q-5 -2 -13 -4.5t-14 -2.5v21q10 0 19.5 7.5t11.5 17.5h22v-307h-26zM168 183v88q0 22 11.5 32t25.5 10h7q13 0 25 -10t12 -32v-52q0 -21 -8.5 -39t-18.5 -39t-18.5 -49t-8.5 -70h55v-22h-82v21q0 45 8.5 74.5t18.5 51t18.5 38.5
t8.5 38v44q0 14 -4.5 19t-9.5 5h-2q-5 0 -9.5 -5t-4.5 -19v-84h-24z" />
    <glyph glyph-name="threequarters" unicode="&#xbe;" horiz-adv-x="276" 
d="M220 699h28l-196 -699h-28zM206 166q16 0 16 26v72q0 14 -4.5 18.5t-10.5 4.5h-2q-5 0 -9 -4.5t-4 -17.5v-84h-26v87q0 22 11.5 32t25.5 10h7q14 0 26 -10t12 -32v-73q0 -18 -8 -27.5t-19 -11.5q11 -2 19 -10.5t8 -25.5v-85q0 -22 -12 -31.5t-26 -9.5h-7q-14 0 -25.5 9.5
t-11.5 31.5v87h26v-83q0 -14 4 -18.5t10 -4.5h2q5 0 9.5 4.5t4.5 18.5v82q0 26 -16 26h-10v19h10zM62 392v268q-5 -2 -13 -4.5t-14 -2.5v21q10 0 19.5 7.5t11.5 17.5h22v-307h-26z" />
    <glyph glyph-name="germandbls" unicode="&#xdf;" horiz-adv-x="237" 
d="M125 380q17 0 27 15t10 45v162q0 30 -12 42.5t-25 12.5h-11q-13 0 -25 -12.5t-12 -42.5v-602h-57v610q0 25 8 43t21 29.5t29 17t31 5.5h21q15 0 31 -5.5t29 -17t21 -29.5t8 -43v-164q0 -42 -18.5 -62t-43.5 -25q25 -5 43.5 -23t18.5 -59v-183q0 -25 -7.5 -43t-19.5 -29
t-27 -16.5t-30 -5.5h-34v48h24q13 0 25 12t12 43v175q0 30 -10 45t-27 15h-24v42h24z" />
    <glyph glyph-name="Oslash" unicode="&#xd8;" horiz-adv-x="287" 
d="M135 -6q-20 0 -39 8.5t-31 28.5l-12 -41h-33l31 104v516q0 25 7.5 43t19.5 29.5t27 17t30 5.5h16q20 0 39 -9.5t31 -29.5l13 43h33l-32 -108v-513q0 -25 -7.5 -43t-19.5 -29t-27 -16.5t-30 -5.5h-16zM140 657q-13 0 -22.5 -13t-9.5 -42v-317l70 236v81q0 29 -9.5 42
t-22.5 13h-6zM140 42h6q13 0 22.5 12.5t9.5 42.5v313l-70 -236v-77q0 -30 9.5 -42.5t22.5 -12.5z" />
    <glyph glyph-name="oslash" unicode="&#xf8;" horiz-adv-x="230" 
d="M109 -3q-31 0 -50 19l-9 -29h-33l20 65q-4 13 -4 33v324q1 42 22.5 65.5t53.5 23.5h15q27 0 47 -17l9 27h33l-19 -60q7 -15 7 -39v-324q0 -42 -22.5 -65t-54.5 -23h-15zM115 41h5q11 0 19.5 11t8.5 34v214l-62 -198v-16q0 -23 9 -34t20 -11zM115 453q-11 0 -20 -11
t-9 -34v-201l62 198v3q0 23 -8.5 34t-19.5 11h-5z" />
    <glyph glyph-name="uni20B9" unicode="&#x20b9;" horiz-adv-x="300" 
d="M20 566h156v33q0 29 -10.5 41t-27.5 14h-118v45h133h6h121v-45h-60q9 -20 9 -44v-44h51v-44h-51v-101q0 -21 -6.5 -37.5t-17.5 -28t-25 -17.5t-29 -6h-58l137 -332h-63l-138 339v33h101q21 0 33.5 14t12.5 41v95h-156v44z" />
    <glyph glyph-name="uni20A6" unicode="&#x20a6;" horiz-adv-x="329" 
d="M309 422v-39h-35v-63h35v-39h-35v-281h-65l-52 281h-47v-281h-48v281h-42v39h42v63h-42v39h42v277h65l50 -277h45v277h52v-277h35zM110 320h39l-11 63h-28v-63zM195 320h27v63h-38zM110 526v-104h20l-19 104h-1zM221 179h1v102h-20z" />
    <glyph glyph-name="peseta" unicode="&#x20a7;" horiz-adv-x="296" 
d="M163 699q34 0 59 -24t25 -70v-90h29v-39h-29v-101q0 -43 -22.5 -61.5t-56.5 -18.5h-49v-295h-57v476h-42v39h42v184h101zM119 515h71v81q0 29 -9.5 42t-23.5 13h-38v-136zM190 476h-71v-134h43q28 0 28 50v84z" />
    <glyph glyph-name="uni20A9" unicode="&#x20a9;" horiz-adv-x="413" 
d="M74 315l-5 73h-49v39h46l-20 272h54l19 -272h40l25 272h47l28 -272h42l19 272h50l-20 -272h43v-39h-46l-6 -73h52v-39h-55l-20 -276h-57l-31 276h-42l-27 -276h-63l-21 276h-57v39h54zM270 315h23l5 73h-35zM127 315h22l6 73h-33zM192 315h34l-8 73h-19zM138 194l7 82
h-15l6 -82h2zM284 194l6 82h-16l9 -82h1zM203 427h10l-5 50z" />
    <glyph glyph-name="franc" unicode="&#x20a3;" horiz-adv-x="218" 
d="M107 651v-280h71v-43h-71v-127h31v-39h-31v-162h-57v162h-30v39h30v498h148v-48h-91z" />
    <glyph glyph-name="dcroat" unicode="&#x111;" horiz-adv-x="234" 
d="M184 0h-43l-6 30q-12 -15 -26 -24t-28 -9h-3q-32 0 -46.5 23t-14.5 65v324q0 42 13.5 65.5t45.5 23.5h3q13 0 26.5 -8t25.5 -22v127h-35v39h35v65h53v-65h42v-39h-42v-595zM98 453q-11 0 -19.5 -11t-8.5 -34v-322q0 -23 8 -34t19 -11h3q11 0 21 13.5t10 36.5v312
q0 23 -10 36.5t-21 13.5h-2z" />
    <glyph glyph-name="quoteaccent" horiz-adv-x="0" 
d="M1 646l17 46h22l-11 -46h13v-65h-41v65z" />
    <glyph glyph-name="accent margin" horiz-adv-x="0" 
d="M81 699h12v-125h-12v125z" />
    <glyph glyph-name="Atilde" unicode="&#xc3;" horiz-adv-x="213" 
d="M155 0h55l-68 699h-73l-66 -699h49l18 194h67zM103 538h2l28 -301h-59zM27 779q16 30 43 30q17 0 32 -10t32 -10q14 0 27 14l26 -17q-10 -17 -21 -23.5t-24 -6.5q-18 0 -33 10t-29 10q-8 0 -15 -3t-15 -11z" />
    <glyph glyph-name="Acircumflex" unicode="&#xc2;" horiz-adv-x="213" 
d="M137 194h-67l-18 -194h-49l66 699h73l68 -699h-55zM74 237h59l-28 301h-2zM132 824l57 -86h-50l-33 59l-32 -59h-51l57 86h52z" />
    <glyph glyph-name="Aacute" unicode="&#xc1;" horiz-adv-x="213" 
d="M137 194h-67l-18 -194h-49l66 699h73l68 -699h-55zM74 237h59l-28 301h-2zM87 738l42 86h51l-57 -86h-36z" />
    <glyph glyph-name="Agrave" unicode="&#xc0;" horiz-adv-x="213" 
d="M155 0h55l-68 699h-73l-66 -699h49l18 194h67zM103 538h2l28 -301h-59zM89 738l-57 86h50l42 -86h-35z" />
    <glyph glyph-name="Adieresis" unicode="&#xc4;" horiz-adv-x="213" 
d="M155 0h55l-68 699h-73l-66 -699h49l18 194h67zM103 538h2l28 -301h-59zM89 750h-38v66h38v-66zM160 750h-38v66h38v-66z" />
    <glyph glyph-name="Aring" unicode="&#xc5;" horiz-adv-x="213" 
d="M155 0h55l-68 699h-73l-66 -699h49l18 194h67zM106 731q-23 0 -41 17.5t-18 40.5q0 25 17.5 43.5t40.5 18.5q25 0 43.5 -18t18.5 -44q0 -23 -17.5 -40.5t-43.5 -17.5zM103 538h2l28 -301h-59zM106 821q-11 0 -20.5 -9.5t-9.5 -21.5q0 -11 9.5 -20.5t20.5 -9.5
q12 0 21.5 9.5t9.5 20.5q0 12 -9.5 21.5t-21.5 9.5z" />
    <glyph glyph-name="Ccedilla" unicode="&#xc7;" horiz-adv-x="220" 
d="M50 -97l6 26q9 -7 22.5 -10t25.5 -1.5t20 7.5t7 18q-2 13 -16 17t-25 -3l-12 4l16 33h2q-15 1 -29 7t-25 17t-17.5 28.5t-6.5 41.5v522q0 25 7.5 43t19.5 29.5t27 17t30 5.5h16q15 0 30 -5.5t27 -17t19.5 -29.5t7.5 -43v-193h-57v185q0 30 -9.5 42.5t-22.5 12.5h-6
q-13 0 -22.5 -12.5t-9.5 -42.5v-505q0 -30 9.5 -42.5t22.5 -12.5h6q13 0 22.5 12.5t9.5 42.5v186h57v-195q0 -24 -6.5 -41.5t-17.5 -28.5t-25 -17t-29 -7h2l-8 -21q18 8 34.5 -0.5t16.5 -28.5q0 -24 -14.5 -37t-34.5 -17t-40 0t-30 13z" />
    <glyph glyph-name="Ecircumflex" unicode="&#xca;" horiz-adv-x="182" 
d="M77 651v-280h70v-43h-70v-280h95v-48h-152v699h148v-48h-91zM122 824l57 -86h-50l-33 59l-32 -59h-51l57 86h52z" />
    <glyph glyph-name="Eacute" unicode="&#xc9;" horiz-adv-x="182" 
d="M77 651v-280h70v-43h-70v-280h95v-48h-152v699h148v-48h-91zM77 738l42 86h51l-57 -86h-36z" />
    <glyph glyph-name="Egrave" unicode="&#xc8;" horiz-adv-x="182" 
d="M168 651v48h-148v-699h152v48h-95v280h70v43h-70v280h91zM79 738l-57 86h50l42 -86h-35z" />
    <glyph glyph-name="Edieresis" unicode="&#xcb;" horiz-adv-x="182" 
d="M168 651v48h-148v-699h152v48h-95v280h70v43h-70v280h91zM79 750h-38v66h38v-66zM150 750h-38v66h38v-66z" />
    <glyph glyph-name="Icircumflex" unicode="&#xce;" horiz-adv-x="97" 
d="M77 699v-699h-57v699h57zM75 830l57 -86h-51l-33 59l-32 -59h-50l57 86h52z" />
    <glyph glyph-name="Iacute" unicode="&#xcd;" horiz-adv-x="97" 
d="M77 699v-699h-57v699h57zM30 744l42 86h50l-57 -86h-35z" />
    <glyph glyph-name="Igrave" unicode="&#xcc;" horiz-adv-x="97" 
d="M20 699v-699h57v699h-57zM31 744l-57 86h51l42 -86h-36z" />
    <glyph glyph-name="Idieresis" unicode="&#xcf;" horiz-adv-x="97" 
d="M20 699v-699h57v699h-57zM32 756h-38v67h38v-67zM103 756h-38v67h38v-67z" />
    <glyph glyph-name="Ntilde" unicode="&#xd1;" horiz-adv-x="244" 
d="M163 0l-98 526h-1v-526h-48v699h65l94 -520h1v520h52v-699h-65zM43 779q17 30 43 30q17 0 32.5 -10t32.5 -10q13 0 26 14l26 -17q-10 -17 -21 -23.5t-24 -6.5q-17 0 -32.5 10t-29.5 10q-8 0 -15 -3t-14 -11z" />
    <glyph glyph-name="Otilde" unicode="&#xd5;" horiz-adv-x="220" 
d="M102 -6q-15 0 -30 5.5t-27 16.5t-19.5 29t-7.5 43v522q0 25 7.5 43t19.5 29.5t27 17t30 5.5h16q15 0 30 -5.5t27 -17t19.5 -29.5t7.5 -43v-522q0 -25 -7.5 -43t-19.5 -29t-27 -16.5t-30 -5.5h-16zM107 657q-13 0 -22.5 -13t-9.5 -42v-505q0 -30 9.5 -42.5t22.5 -12.5h6
q13 0 22.5 12.5t9.5 42.5v505q0 29 -9.5 42t-22.5 13h-6zM31 779q16 30 43 30q17 0 32 -10t32 -10q14 0 27 14l26 -17q-10 -17 -21 -23.5t-24 -6.5q-18 0 -33 10t-29 10q-8 0 -15 -3t-15 -11z" />
    <glyph glyph-name="Ocircumflex" unicode="&#xd4;" horiz-adv-x="220" 
d="M102 -6q-15 0 -30 5.5t-27 16.5t-19.5 29t-7.5 43v522q0 25 7.5 43t19.5 29.5t27 17t30 5.5h16q15 0 30 -5.5t27 -17t19.5 -29.5t7.5 -43v-522q0 -25 -7.5 -43t-19.5 -29t-27 -16.5t-30 -5.5h-16zM107 657q-13 0 -22.5 -13t-9.5 -42v-505q0 -30 9.5 -42.5t22.5 -12.5h6
q13 0 22.5 12.5t9.5 42.5v505q0 29 -9.5 42t-22.5 13h-6zM136 824l57 -86h-50l-33 59l-32 -59h-51l57 86h52z" />
    <glyph glyph-name="Oacute" unicode="&#xd3;" horiz-adv-x="220" 
d="M102 -6q-15 0 -30 5.5t-27 16.5t-19.5 29t-7.5 43v522q0 25 7.5 43t19.5 29.5t27 17t30 5.5h16q15 0 30 -5.5t27 -17t19.5 -29.5t7.5 -43v-522q0 -25 -7.5 -43t-19.5 -29t-27 -16.5t-30 -5.5h-16zM107 657q-13 0 -22.5 -13t-9.5 -42v-505q0 -30 9.5 -42.5t22.5 -12.5h6
q13 0 22.5 12.5t9.5 42.5v505q0 29 -9.5 42t-22.5 13h-6zM91 738l42 86h51l-57 -86h-36z" />
    <glyph glyph-name="Ograve" unicode="&#xd2;" horiz-adv-x="220" 
d="M102 -6q-15 0 -30 5.5t-27 16.5t-19.5 29t-7.5 43v522q0 25 7.5 43t19.5 29.5t27 17t30 5.5h16q15 0 30 -5.5t27 -17t19.5 -29.5t7.5 -43v-522q0 -25 -7.5 -43t-19.5 -29t-27 -16.5t-30 -5.5h-16zM107 657q-13 0 -22.5 -13t-9.5 -42v-505q0 -30 9.5 -42.5t22.5 -12.5h6
q13 0 22.5 12.5t9.5 42.5v505q0 29 -9.5 42t-22.5 13h-6zM93 738l-57 86h50l42 -86h-35z" />
    <glyph glyph-name="Odieresis" unicode="&#xd6;" horiz-adv-x="220" 
d="M102 -6q-15 0 -30 5.5t-27 16.5t-19.5 29t-7.5 43v522q0 25 7.5 43t19.5 29.5t27 17t30 5.5h16q15 0 30 -5.5t27 -17t19.5 -29.5t7.5 -43v-522q0 -25 -7.5 -43t-19.5 -29t-27 -16.5t-30 -5.5h-16zM107 657q-13 0 -22.5 -13t-9.5 -42v-505q0 -30 9.5 -42.5t22.5 -12.5h6
q13 0 22.5 12.5t9.5 42.5v505q0 29 -9.5 42t-22.5 13h-6zM93 750h-38v66h38v-66zM164 750h-38v66h38v-66z" />
    <glyph glyph-name="Ucircumflex" unicode="&#xdb;" horiz-adv-x="222" 
d="M104 -6q-15 0 -30 5.5t-27 16.5t-19.5 29t-7.5 43v611h57v-602q0 -30 9.5 -42.5t22.5 -12.5h6q13 0 22.5 12.5t9.5 42.5v602h57v-611q0 -25 -7.5 -43t-19.5 -29t-27 -16.5t-30 -5.5h-16zM138 824l57 -86h-50l-33 59l-32 -59h-51l57 86h52z" />
    <glyph glyph-name="Uacute" unicode="&#xda;" horiz-adv-x="222" 
d="M104 -6q-15 0 -30 5.5t-27 16.5t-19.5 29t-7.5 43v611h57v-602q0 -30 9.5 -42.5t22.5 -12.5h6q13 0 22.5 12.5t9.5 42.5v602h57v-611q0 -25 -7.5 -43t-19.5 -29t-27 -16.5t-30 -5.5h-16zM93 738l42 86h51l-57 -86h-36z" />
    <glyph glyph-name="Ugrave" unicode="&#xd9;" horiz-adv-x="222" 
d="M104 -6q-15 0 -30 5.5t-27 16.5t-19.5 29t-7.5 43v611h57v-602q0 -30 9.5 -42.5t22.5 -12.5h6q13 0 22.5 12.5t9.5 42.5v602h57v-611q0 -25 -7.5 -43t-19.5 -29t-27 -16.5t-30 -5.5h-16zM95 738l-57 86h50l42 -86h-35z" />
    <glyph glyph-name="Udieresis" unicode="&#xdc;" horiz-adv-x="222" 
d="M104 -6q-15 0 -30 5.5t-27 16.5t-19.5 29t-7.5 43v611h57v-602q0 -30 9.5 -42.5t22.5 -12.5h6q13 0 22.5 12.5t9.5 42.5v602h57v-611q0 -25 -7.5 -43t-19.5 -29t-27 -16.5t-30 -5.5h-16zM95 750h-38v66h38v-66zM166 750h-38v66h38v-66z" />
    <glyph glyph-name="Yacute" unicode="&#xdd;" horiz-adv-x="213" 
d="M135 266v-266h-57v266l-75 433h57l45 -303h2l46 303h57zM88 738l42 86h50l-57 -86h-35z" />
    <glyph glyph-name="atilde" unicode="&#xe3;" 
d="M73 -3q-32 0 -44 23t-12 65v103q0 42 13.5 65.5t45.5 23.5h3q13 0 26 -6t26 -16v153q0 23 -8.5 34t-19.5 11h-6q-11 0 -19 -11t-8 -34v-117h-53v118q0 43 22 66t54 23h15q32 0 54 -23.5t22 -65.5v-409h-53v20q-14 -11 -28 -17t-27 -6h-3zM97 237q-11 0 -19 -11t-8 -34
v-111q0 -23 8 -34t19 -11h3q11 0 20 9.5t11 30.5v132q0 17 -9.5 23t-18.5 6h-6zM22 576q16 30 43 30q17 0 32 -10t32 -10q14 0 27 14l26 -17q-10 -17 -21 -23.5t-24 -6.5q-18 0 -33 10t-29 10q-8 0 -15 -3t-15 -11z" />
    <glyph glyph-name="acircumflex" unicode="&#xe2;" 
d="M73 -3q-32 0 -44 23t-12 65v103q0 42 13.5 65.5t45.5 23.5h3q13 0 26 -6t26 -16v153q0 23 -8.5 34t-19.5 11h-6q-11 0 -19 -11t-8 -34v-117h-53v118q0 43 22 66t54 23h15q32 0 54 -23.5t22 -65.5v-409h-53v20q-14 -11 -28 -17t-27 -6h-3zM97 237q-11 0 -19 -11t-8 -34
v-111q0 -23 8 -34t19 -11h3q11 0 21 11t10 34v130q-2 14 -11 20t-17 6h-6zM127 621l57 -86h-50l-33 59l-32 -59h-51l57 86h52z" />
    <glyph glyph-name="aacute" unicode="&#xe1;" 
d="M73 -3q-32 0 -44 23t-12 65v103q0 42 13.5 65.5t45.5 23.5h3q13 0 26 -6t26 -16v153q0 23 -8.5 34t-19.5 11h-6q-11 0 -19 -11t-8 -34v-117h-53v118q0 43 22 66t54 23h15q32 0 54 -23.5t22 -65.5v-409h-53v20q-14 -11 -28 -17t-27 -6h-3zM97 237q-11 0 -19 -11t-8 -34
v-111q0 -23 8 -34t19 -11h3q11 0 21 11t10 34v127q0 17 -9.5 23t-18.5 6h-6zM82 535l42 86h51l-57 -86h-36z" />
    <glyph glyph-name="agrave" unicode="&#xe0;" 
d="M73 -3q-32 0 -44 23t-12 65v103q0 42 13.5 65.5t45.5 23.5h3q13 0 26 -6t26 -16v153q0 23 -8.5 34t-19.5 11h-6q-11 0 -19 -11t-8 -34v-117h-53v118q0 43 22 66t54 23h15q32 0 54 -23.5t22 -65.5v-409h-53v20q-14 -11 -28 -17t-27 -6h-3zM97 237q-11 0 -19 -11t-8 -34
v-111q0 -23 8 -34t19 -11h3q11 0 21 11t10 34v130q-2 14 -11 20t-17 6h-6zM84 535l-57 86h50l42 -86h-35z" />
    <glyph glyph-name="adieresis" unicode="&#xe4;" 
d="M73 -3q-32 0 -44 23t-12 65v103q0 42 13.5 65.5t45.5 23.5h3q13 0 26 -6t26 -16v153q0 23 -8.5 34t-19.5 11h-6q-11 0 -19 -11t-8 -34v-117h-53v118q0 43 22 66t54 23h15q32 0 54 -23.5t22 -65.5v-409h-53v20q-14 -11 -28 -17t-27 -6h-3zM97 237q-11 0 -19 -11t-8 -34
v-111q0 -23 8 -34t19 -11h3q11 0 21 11t10 34v130q-2 14 -11 20t-17 6h-6zM155 547h-38v66h38v-66zM84 547h-38v66h38v-66z" />
    <glyph glyph-name="aring" unicode="&#xe5;" 
d="M73 -3q-32 0 -44 23t-12 65v103q0 42 13.5 65.5t45.5 23.5h3q13 0 26 -6t26 -16v153q0 23 -8.5 34t-19.5 11h-6q-11 0 -19 -11t-8 -34v-117h-53v118q0 43 22 66t54 23h15q32 0 54 -23.5t22 -65.5v-409h-53v20q-14 -11 -28 -17t-27 -6h-3zM97 237q-11 0 -19 -11t-8 -34
v-111q0 -23 8 -34t19 -11h3q11 0 21 11t10 34v127q0 17 -9.5 23t-18.5 6h-6zM101 528q-23 0 -41 17.5t-18 40.5q0 25 17.5 43.5t40.5 18.5q25 0 43.5 -18t18.5 -44q0 -23 -17.5 -40.5t-43.5 -17.5zM101 618q-11 0 -20.5 -9.5t-9.5 -21.5q0 -11 9.5 -20.5t20.5 -9.5
q12 0 21.5 9.5t9.5 20.5q0 12 -9.5 21.5t-21.5 9.5z" />
    <glyph glyph-name="ccedilla" unicode="&#xe7;" 
d="M40 -94l6 26q9 -7 22.5 -10t25 -1.5t19.5 7.5t7 18q-1 14 -15 18t-25 -4l-12 4l16 33q-28 2 -47.5 25t-19.5 64v323q0 42 22 65.5t54 23.5h15q32 0 54 -23t22 -66v-118h-53v117q0 23 -8 34t-19 11h-6q-11 0 -19.5 -11t-8.5 -34v-322q0 -23 8 -34t18 -11h8q11 0 19 11
t8 34v120h53v-120q0 -41 -20 -64t-49 -25l-7 -21q17 8 34 -0.5t17 -28.5q0 -24 -14.5 -37t-34.5 -17t-40 0t-30 13z" />
    <glyph glyph-name="ecircumflex" unicode="&#xea;" 
d="M96 41h8q11 0 19 11t8 34v120h53v-120q0 -43 -22 -66t-54 -23h-18q-29 0 -51 23t-22 66v323q0 42 22 65.5t54 23.5h15q32 0 54 -23t22 -66v-173h-114v-150q0 -23 8 -34t18 -11zM131 273v135q0 23 -8 34t-19 11h-6q-11 0 -19.5 -11t-8.5 -34v-135h61zM126 621l57 -86h-50
l-33 59l-32 -59h-51l57 86h52z" />
    <glyph glyph-name="eacute" unicode="&#xe9;" 
d="M96 41h8q11 0 19 11t8 34v120h53v-120q0 -43 -22 -66t-54 -23h-18q-29 0 -51 23t-22 66v323q0 42 22 65.5t54 23.5h15q32 0 54 -23t22 -66v-173h-114v-150q0 -23 8 -34t18 -11zM131 273v135q0 23 -8 34t-19 11h-6q-11 0 -19.5 -11t-8.5 -34v-135h61zM81 535l42 86h51
l-57 -86h-36z" />
    <glyph glyph-name="egrave" unicode="&#xe8;" 
d="M96 41h8q11 0 19 11t8 34v120h53v-120q0 -43 -22 -66t-54 -23h-18q-29 0 -51 23t-22 66v323q0 42 22 65.5t54 23.5h15q32 0 54 -23t22 -66v-173h-114v-150q0 -23 8 -34t18 -11zM131 273v135q0 23 -8 34t-19 11h-6q-11 0 -19.5 -11t-8.5 -34v-135h61zM83 535l-57 86h50
l42 -86h-35z" />
    <glyph glyph-name="edieresis" unicode="&#xeb;" 
d="M96 41h8q11 0 19 11t8 34v120h53v-120q0 -43 -22 -66t-54 -23h-18q-29 0 -51 23t-22 66v323q0 42 22 65.5t54 23.5h15q32 0 54 -23t22 -66v-173h-114v-150q0 -23 8 -34t18 -11zM131 273v135q0 23 -8 34t-19 11h-6q-11 0 -19.5 -11t-8.5 -34v-135h61zM83 547h-38v66h38
v-66zM154 547h-38v66h38v-66z" />
    <glyph glyph-name="ntilde" unicode="&#xf1;" horiz-adv-x="203" 
d="M106 453q11 0 19.5 -11t8.5 -34v-408h53v409q0 42 -14 65.5t-46 23.5h-3q-14 0 -27.5 -8.5t-25.5 -22.5v28h-53v-495h53v406q1 21 11.5 34t21.5 13h2zM47 576q16 30 43 30q17 0 32 -10t32 -10q14 0 27 14l26 -17q-10 -17 -21 -23.5t-24 -6.5q-18 0 -33 10t-29 10
q-8 0 -15 -3t-15 -11z" />
    <glyph glyph-name="otilde" unicode="&#xf5;" 
d="M93 -3q-32 0 -54 23t-22 65v324q0 42 22 65.5t54 23.5h15q32 0 54 -23.5t22 -65.5v-324q0 -42 -22 -65t-54 -23h-15zM98 453q-11 0 -19.5 -11t-8.5 -34v-322q0 -23 8.5 -34t19.5 -11h6q11 0 19 11t8 34v322q0 23 -8 34t-19 11h-6zM22 576q16 30 43 30q17 0 32 -10t32 -10
q14 0 27 14l26 -17q-10 -17 -21 -23.5t-24 -6.5q-18 0 -33 10t-29 10q-8 0 -15 -3t-15 -11z" />
    <glyph glyph-name="ocircumflex" unicode="&#xf4;" 
d="M93 -3q-32 0 -54 23t-22 65v324q0 42 22 65.5t54 23.5h15q32 0 54 -23.5t22 -65.5v-324q0 -42 -22 -65t-54 -23h-15zM98 453q-11 0 -19.5 -11t-8.5 -34v-322q0 -23 8.5 -34t19.5 -11h6q11 0 19 11t8 34v322q0 23 -8 34t-19 11h-6zM127 621l57 -86h-50l-33 59l-32 -59h-51
l57 86h52z" />
    <glyph glyph-name="oacute" unicode="&#xf3;" 
d="M93 -3q-32 0 -54 23t-22 65v324q0 42 22 65.5t54 23.5h15q32 0 54 -23.5t22 -65.5v-324q0 -42 -22 -65t-54 -23h-15zM98 453q-11 0 -19.5 -11t-8.5 -34v-322q0 -23 8.5 -34t19.5 -11h6q11 0 19 11t8 34v322q0 23 -8 34t-19 11h-6zM82 535l42 86h51l-57 -86h-36z" />
    <glyph glyph-name="ograve" unicode="&#xf2;" 
d="M93 -3q-32 0 -54 23t-22 65v324q0 42 22 65.5t54 23.5h15q32 0 54 -23.5t22 -65.5v-324q0 -42 -22 -65t-54 -23h-15zM98 453q-11 0 -19.5 -11t-8.5 -34v-322q0 -23 8.5 -34t19.5 -11h6q11 0 19 11t8 34v322q0 23 -8 34t-19 11h-6zM84 535l-57 86h50l42 -86h-35z" />
    <glyph glyph-name="odieresis" unicode="&#xf6;" 
d="M93 -3q-32 0 -54 23t-22 65v324q0 42 22 65.5t54 23.5h15q32 0 54 -23.5t22 -65.5v-324q0 -42 -22 -65t-54 -23h-15zM98 453q-11 0 -19.5 -11t-8.5 -34v-322q0 -23 8.5 -34t19.5 -11h6q11 0 19 11t8 34v322q0 23 -8 34t-19 11h-6zM84 548h-38v66h38v-66zM155 548h-38v66
h38v-66z" />
    <glyph glyph-name="ucircumflex.001" horiz-adv-x="202" 
d="M99 41q11 0 22 14.5t11 37.5v402h53v-495h-53v28q-13 -14 -26.5 -22.5t-27.5 -8.5h-3q-32 0 -45.5 23t-13.5 65v410h53v-409q0 -23 8 -34t19 -11h3zM127 620l57 -86h-51l-33 59l-32 -59h-50l57 86h52z" />
    <glyph glyph-name="uacute.001" horiz-adv-x="202" 
d="M99 41q11 0 22 14.5t11 37.5v402h53v-495h-53v28q-13 -14 -26.5 -22.5t-27.5 -8.5h-3q-32 0 -45.5 23t-13.5 65v410h53v-409q0 -23 8 -34t19 -11h3zM82 534l42 86h50l-57 -86h-35z" />
    <glyph glyph-name="ugrave.001" horiz-adv-x="202" 
d="M96 41q-11 0 -19 11t-8 34v409h-53v-410q0 -42 13.5 -65t45.5 -23h3q14 0 27.5 8.5t26.5 22.5v-28h53v495h-53v-407q-2 -21 -12 -34t-21 -13h-3zM83 534l-57 86h51l42 -86h-36z" />
    <glyph glyph-name="udieresis.001" horiz-adv-x="202" 
d="M96 41q-11 0 -19 11t-8 34v409h-53v-410q0 -42 13.5 -65t45.5 -23h3q14 0 27.5 8.5t26.5 22.5v-28h53v495h-53v-402q0 -23 -11 -37.5t-22 -14.5h-3zM155 546h-38v66h38v-66zM84 546h-38v66h38v-66z" />
    <glyph glyph-name="ucircumflex" unicode="&#xfb;" horiz-adv-x="202" 
d="M99 41q11 0 22 14.5t11 37.5v402h53v-495h-53v28q-13 -14 -26.5 -22.5t-27.5 -8.5h-3q-32 0 -45.5 23t-13.5 65v410h53v-409q0 -23 8 -34t19 -11h3zM127 620l57 -86h-51l-33 59l-32 -59h-50l57 86h52z" />
    <glyph glyph-name="uacute" unicode="&#xfa;" horiz-adv-x="202" 
d="M99 41q11 0 22 14.5t11 37.5v402h53v-495h-53v28q-13 -14 -26.5 -22.5t-27.5 -8.5h-3q-32 0 -45.5 23t-13.5 65v410h53v-409q0 -23 8 -34t19 -11h3zM82 534l42 86h50l-57 -86h-35z" />
    <glyph glyph-name="ugrave" unicode="&#xf9;" horiz-adv-x="202" 
d="M96 41q-11 0 -19 11t-8 34v409h-53v-410q0 -42 13.5 -65t45.5 -23h3q14 0 27.5 8.5t26.5 22.5v-28h53v495h-53v-407q-2 -21 -12 -34t-21 -13h-3zM83 534l-57 86h51l42 -86h-36z" />
    <glyph glyph-name="udieresis" unicode="&#xfc;" horiz-adv-x="202" 
d="M96 41q-11 0 -19 11t-8 34v409h-53v-410q0 -42 13.5 -65t45.5 -23h3q14 0 27.5 8.5t26.5 22.5v-28h53v495h-53v-402q0 -23 -11 -37.5t-22 -14.5h-3zM155 546h-38v66h38v-66zM84 546h-38v66h38v-66z" />
    <glyph glyph-name="icircumflex" unicode="&#xee;" horiz-adv-x="90" 
d="M73 495v-495h-53v495h53zM73 620l57 -86h-51l-33 59l-32 -59h-50l57 86h52z" />
    <glyph glyph-name="iacute.001" horiz-adv-x="90" 
d="M73 495v-495h-53v495h53zM28 534l42 86h50l-57 -86h-35z" />
    <glyph glyph-name="igrave" unicode="&#xec;" horiz-adv-x="90" 
d="M20 495v-495h53v495h-53zM29 534l-57 86h51l42 -86h-36z" />
    <glyph glyph-name="idieresis" unicode="&#xef;" horiz-adv-x="90" 
d="M20 495v-495h53v495h-53zM30 546h-38v66h38v-66zM101 546h-38v66h38v-66z" />
    <glyph glyph-name="yacute" unicode="&#xfd;" horiz-adv-x="179" 
d="M133 495h44l-71 -660h-52l20 165l-72 495h48l42 -346h2zM71 535l42 86h51l-57 -86h-36z" />
    <glyph glyph-name="ydieresis" unicode="&#xff;" horiz-adv-x="179" 
d="M94 149h-2l-42 346h-48l72 -495l-20 -165h52l71 660h-44zM72 548h-38v67h38v-67zM143 548h-38v67h38v-67z" />
    <glyph glyph-name="Abreve" unicode="&#x102;" horiz-adv-x="213" 
d="M155 0h55l-68 699h-73l-66 -699h49l18 194h67zM103 538h2l28 -301h-59zM76 815q0 -12 9 -21.5t21 -9.5q13 0 22 9.5t9 21.5h34q0 -26 -19 -45t-46 -19q-25 0 -44 19t-19 45h33z" />
    <glyph glyph-name="Amacron" unicode="&#x100;" horiz-adv-x="213" 
d="M137 194h-67l-18 -194h-49l66 699h73l68 -699h-55zM74 237h59l-28 301h-2zM168 763h-126v40h126v-40z" />
    <glyph glyph-name="Aogonek" unicode="&#x104;" horiz-adv-x="213" 
d="M234 -64q-8 -17 -24 -24.5t-32 -6t-28 13t-12 31.5q0 28 28 50h-11l-18 194h-67l-18 -194h-49l66 699h73l68 -699h-2q-17 -6 -28 -19.5t-10 -24.5q0 -10 5 -15.5t12 -6.5t15 3t13 12zM74 237h59l-28 301h-2z" />
    <glyph glyph-name="abreve" unicode="&#x103;" 
d="M73 -3q-32 0 -44 23t-12 65v103q0 42 13.5 65.5t45.5 23.5h3q13 0 26 -6t26 -16v153q0 23 -8.5 34t-19.5 11h-6q-11 0 -19 -11t-8 -34v-117h-53v118q0 43 22 66t54 23h15q32 0 54 -23.5t22 -65.5v-409h-53v20q-14 -11 -28 -17t-27 -6h-3zM97 237q-11 0 -19 -11t-8 -34
v-111q0 -23 8 -34t19 -11h3q11 0 20 9.5t11 30.5v135q-2 14 -11 20t-17 6h-6zM71 612q0 -12 9 -21.5t21 -9.5q13 0 22 9.5t9 21.5h34q0 -26 -19 -45t-46 -19q-25 0 -44 19t-19 45h33z" />
    <glyph glyph-name="amacron" unicode="&#x101;" 
d="M73 -3q-32 0 -44 23t-12 65v103q0 42 13.5 65.5t45.5 23.5h3q13 0 26 -6t26 -16v153q0 23 -8.5 34t-19.5 11h-6q-11 0 -19 -11t-8 -34v-117h-53v118q0 43 22 66t54 23h15q32 0 54 -23.5t22 -65.5v-409h-53v20q-14 -11 -28 -17t-27 -6h-3zM97 237q-11 0 -19 -11t-8 -34
v-111q0 -23 8 -34t19 -11h3q11 0 20 9.5t11 30.5v135q-2 14 -11 20t-17 6h-6zM163 560h-126v40h126v-40z" />
    <glyph glyph-name="aogonek" unicode="&#x105;" 
d="M73 -3q-32 0 -44 23t-12 65v103q0 42 13.5 65.5t45.5 23.5h3q13 0 26 -6t26 -16v153q0 23 -8.5 34t-19.5 11h-6q-11 0 -19 -11t-8 -34v-117h-53v118q0 43 22 66t54 23h15q32 0 54 -23.5t22 -65.5v-409h-53v20q-14 -11 -28 -17t-27 -6h-3zM97 237q-11 0 -19 -11t-8 -34
v-111q0 -23 8 -34t19 -11h3q11 0 21 11t10 34v127q0 17 -9.5 23t-18.5 6h-6zM191 -51q-5 -8 -13 -12t-15 -3t-12 6.5t-5 15.5q-1 11 10 24.5t28 19.5h-42q-28 -22 -28 -50q0 -20 12 -31.5t28 -13t32 6t24 24.5z" />
    <glyph glyph-name="Ccircumflex" unicode="&#x108;" horiz-adv-x="220" 
d="M102 -6q-15 0 -30 5.5t-27 16.5t-19.5 29t-7.5 43v522q0 25 7.5 43t19.5 29.5t27 17t30 5.5h16q15 0 30 -5.5t27 -17t19.5 -29.5t7.5 -43v-193h-57v185q0 30 -9.5 42.5t-22.5 12.5h-6q-13 0 -22.5 -12.5t-9.5 -42.5v-505q0 -30 9.5 -42.5t22.5 -12.5h6q13 0 22.5 12.5
t9.5 42.5v186h57v-195q0 -25 -7.5 -43t-19.5 -29t-27 -16.5t-30 -5.5h-16zM136 827l57 -86h-50l-33 59l-32 -59h-51l57 86h52z" />
    <glyph glyph-name="Cacute" unicode="&#x106;" horiz-adv-x="220" 
d="M102 -6q-15 0 -30 5.5t-27 16.5t-19.5 29t-7.5 43v522q0 25 7.5 43t19.5 29.5t27 17t30 5.5h16q15 0 30 -5.5t27 -17t19.5 -29.5t7.5 -43v-193h-57v185q0 30 -9.5 42.5t-22.5 12.5h-6q-13 0 -22.5 -12.5t-9.5 -42.5v-505q0 -30 9.5 -42.5t22.5 -12.5h6q13 0 22.5 12.5
t9.5 42.5v186h57v-195q0 -25 -7.5 -43t-19.5 -29t-27 -16.5t-30 -5.5h-16zM91 741l42 86h51l-57 -86h-36z" />
    <glyph glyph-name="Ccaron" unicode="&#x10c;" horiz-adv-x="220" 
d="M102 -6q-15 0 -30 5.5t-27 16.5t-19.5 29t-7.5 43v522q0 25 7.5 43t19.5 29.5t27 17t30 5.5h16q15 0 30 -5.5t27 -17t19.5 -29.5t7.5 -43v-193h-57v185q0 30 -9.5 42.5t-22.5 12.5h-6q-13 0 -22.5 -12.5t-9.5 -42.5v-505q0 -30 9.5 -42.5t22.5 -12.5h6q13 0 22.5 12.5
t9.5 42.5v186h57v-195q0 -25 -7.5 -43t-19.5 -29t-27 -16.5t-30 -5.5h-16zM83 743l-57 86h51l32 -60l33 60h50l-57 -86h-52z" />
    <glyph glyph-name="Cdotaccent" unicode="&#x10a;" horiz-adv-x="220" 
d="M102 -6q-15 0 -30 5.5t-27 16.5t-19.5 29t-7.5 43v522q0 25 7.5 43t19.5 29.5t27 17t30 5.5h16q15 0 30 -5.5t27 -17t19.5 -29.5t7.5 -43v-193h-57v185q0 30 -9.5 42.5t-22.5 12.5h-6q-13 0 -22.5 -12.5t-9.5 -42.5v-505q0 -30 9.5 -42.5t22.5 -12.5h6q13 0 22.5 12.5
t9.5 42.5v186h57v-195q0 -25 -7.5 -43t-19.5 -29t-27 -16.5t-30 -5.5h-16zM128 753h-38v67h38v-67z" />
    <glyph glyph-name="ccircumflex" unicode="&#x109;" 
d="M131 291v117q0 23 -8 34t-19 11h-6q-11 0 -19.5 -11t-8.5 -34v-322q0 -23 8 -34t18 -11h8q11 0 19 11t8 34v120h53v-120q0 -43 -22 -66t-54 -23h-18q-29 0 -51 23t-22 66v323q0 42 22 65.5t54 23.5h15q32 0 54 -23t22 -66v-118h-53zM127 621l57 -86h-51l-33 59l-32 -59
h-50l57 86h52z" />
    <glyph glyph-name="cacute" unicode="&#x107;" 
d="M131 291v117q0 23 -8 34t-19 11h-6q-11 0 -19.5 -11t-8.5 -34v-322q0 -23 8 -34t18 -11h8q11 0 19 11t8 34v120h53v-120q0 -43 -22 -66t-54 -23h-18q-29 0 -51 23t-22 66v323q0 42 22 65.5t54 23.5h15q32 0 54 -23t22 -66v-118h-53zM82 535l42 86h50l-57 -86h-35z" />
    <glyph glyph-name="ccaron" unicode="&#x10d;" 
d="M131 291v117q0 23 -8 34t-19 11h-6q-11 0 -19.5 -11t-8.5 -34v-322q0 -23 8 -34t18 -11h8q11 0 19 11t8 34v120h53v-120q0 -43 -22 -66t-54 -23h-18q-29 0 -51 23t-22 66v323q0 42 22 65.5t54 23.5h15q32 0 54 -23t22 -66v-118h-53zM74 537l-57 86h50l32 -60l33 60h51
l-57 -86h-52z" />
    <glyph glyph-name="cdotaccent" unicode="&#x10b;" 
d="M131 291v117q0 23 -8 34t-19 11h-6q-11 0 -19.5 -11t-8.5 -34v-322q0 -23 8 -34t18 -11h8q11 0 19 11t8 34v120h53v-120q0 -43 -22 -66t-54 -23h-18q-29 0 -51 23t-22 66v323q0 42 22 65.5t54 23.5h15q32 0 54 -23t22 -66v-118h-53zM118 547h-38v67h38v-67z" />
    <glyph glyph-name="Dcaron" unicode="&#x10e;" horiz-adv-x="222" 
d="M20 0v699h100q15 0 30 -5t27 -16t19.5 -28.5t7.5 -42.5v-516q0 -25 -7.5 -42.5t-19.5 -28t-27 -15.5t-30 -5h-100zM77 651v-603h38q13 0 22.5 11t9.5 41v499q0 29 -9.5 40.5t-22.5 11.5h-38zM85 740l-57 86h51l32 -60l33 60h50l-57 -86h-52z" />
    <glyph glyph-name="dcaron" unicode="&#x10f;" horiz-adv-x="275" 
d="M78 -3q-32 0 -46.5 23t-14.5 65v324q0 42 13.5 65.5t45.5 23.5h3q13 0 26.5 -8t25.5 -22v231h53v-699h-43l-6 30q-12 -15 -26 -24t-28 -9h-3zM98 453q-11 0 -19.5 -11t-8.5 -34v-322q0 -23 8 -34t19 -11h3q11 0 21 13.5t10 36.5v316q-2 22 -11 34t-20 12h-2zM279 612
l-22 -59h-25l15 59h-26v87h58v-87z" />
    <glyph glyph-name="Ebreve" unicode="&#x114;" horiz-adv-x="182" 
d="M168 651v48h-148v-699h152v48h-95v280h70v43h-70v280h91zM66 815q0 -12 9 -21.5t21 -9.5q13 0 22 9.5t9 21.5h34q0 -26 -19 -45t-46 -19q-25 0 -44 19t-19 45h33z" />
    <glyph glyph-name="Edotaccent" unicode="&#x116;" horiz-adv-x="182" 
d="M168 651v48h-148v-699h152v48h-95v280h70v43h-70v280h91zM114 750h-38v67h38v-67z" />
    <glyph glyph-name="Emacron" unicode="&#x112;" horiz-adv-x="182" 
d="M77 651v-280h70v-43h-70v-280h95v-48h-152v699h148v-48h-91zM158 763h-126v40h126v-40z" />
    <glyph glyph-name="Eogonek" unicode="&#x118;" horiz-adv-x="182" 
d="M148 -64q-8 -17 -24 -24.5t-32 -6t-28 13t-12 31.5q0 28 28 50h-60v699h148v-48h-91v-280h70v-43h-70v-280h95v-48h-50q-17 -6 -28 -19.5t-10 -24.5q0 -10 5 -15.5t12 -6.5t15 3t13 12z" />
    <glyph glyph-name="eogonek" unicode="&#x119;" 
d="M152 -67q-8 -17 -24.5 -24.5t-32.5 -6t-28 13t-12 31.5q0 15 7.5 27.5t20.5 22.5q-27 2 -46.5 25t-19.5 64v323q0 42 22 65.5t54 23.5h15q32 0 54 -23t22 -66v-173h-114v-150q0 -23 8 -34t18 -11h8q11 0 19 11t8 34v120h53v-120q0 -38 -18 -60t-44 -27
q-16 -10 -25.5 -22.5t-9.5 -23.5q1 -20 17.5 -22t27.5 15zM131 273v135q0 23 -8 34t-19 11h-6q-11 0 -19.5 -11t-8.5 -34v-135h61z" />
    <glyph glyph-name="ecaron" unicode="&#x11b;" 
d="M96 41h8q11 0 19 11t8 34v120h53v-120q0 -43 -22 -66t-54 -23h-18q-29 0 -51 23t-22 66v323q0 42 22 65.5t54 23.5h15q32 0 54 -23t22 -66v-173h-114v-150q0 -23 8 -34t18 -11zM131 273v135q0 23 -8 34t-19 11h-6q-11 0 -19.5 -11t-8.5 -34v-135h61zM73 537l-57 86h51
l32 -60l33 60h50l-57 -86h-52z" />
    <glyph glyph-name="ebreve" unicode="&#x115;" 
d="M96 41h8q11 0 19 11t8 34v120h53v-120q0 -43 -22 -66t-54 -23h-18q-29 0 -51 23t-22 66v323q0 42 22 65.5t54 23.5h15q32 0 54 -23t22 -66v-173h-114v-150q0 -23 8 -34t18 -11zM131 273v135q0 23 -8 34t-19 11h-6q-11 0 -19.5 -11t-8.5 -34v-135h61zM70 612
q0 -12 9 -21.5t21 -9.5q13 0 22 9.5t9 21.5h34q0 -26 -19 -45t-46 -19q-25 0 -44 19t-19 45h33z" />
    <glyph glyph-name="edotaccent" unicode="&#x117;" 
d="M96 41h8q11 0 19 11t8 34v120h53v-120q0 -43 -22 -66t-54 -23h-18q-29 0 -51 23t-22 66v323q0 42 22 65.5t54 23.5h15q32 0 54 -23t22 -66v-173h-114v-150q0 -23 8 -34t18 -11zM131 273v135q0 23 -8 34t-19 11h-6q-11 0 -19.5 -11t-8.5 -34v-135h61zM118 547h-38v67h38
v-67z" />
    <glyph glyph-name="emacron" unicode="&#x113;" 
d="M96 41h8q11 0 19 11t8 34v120h53v-120q0 -43 -22 -66t-54 -23h-18q-29 0 -51 23t-22 66v323q0 42 22 65.5t54 23.5h15q32 0 54 -23t22 -66v-173h-114v-150q0 -23 8 -34t18 -11zM131 273v135q0 23 -8 34t-19 11h-6q-11 0 -19.5 -11t-8.5 -34v-135h61zM162 560h-126v40h126
v-40z" />
    <glyph glyph-name="Ecaron" unicode="&#x11a;" horiz-adv-x="182" 
d="M168 651v48h-148v-699h152v48h-95v280h70v43h-70v280h91zM69 740l-57 86h51l32 -60l33 60h50l-57 -86h-52z" />
    <glyph glyph-name="Gcircumflex" unicode="&#x11c;" horiz-adv-x="220" 
d="M102 -6q-15 0 -30 5.5t-27 16.5t-19.5 29t-7.5 43v522q0 25 7.5 43t19.5 29.5t27 17t30 5.5h16q15 0 30 -5.5t27 -17t19.5 -29.5t7.5 -43v-193h-57v185q0 30 -9.5 42.5t-22.5 12.5h-6q-13 0 -22.5 -12.5t-9.5 -42.5v-505q0 -30 9.5 -42.5t22.5 -12.5h6q13 0 22.5 12.5
t9.5 42.5v138h-34v48h91v-175v-5v-103h-28l-7 24q-30 -30 -58 -30h-7zM136 824l57 -86h-50l-33 59l-32 -59h-51l57 86h52z" />
    <glyph glyph-name="Gbreve" unicode="&#x11e;" horiz-adv-x="220" 
d="M102 -6q-15 0 -30 5.5t-27 16.5t-19.5 29t-7.5 43v522q0 25 7.5 43t19.5 29.5t27 17t30 5.5h16q15 0 30 -5.5t27 -17t19.5 -29.5t7.5 -43v-193h-57v185q0 30 -9.5 42.5t-22.5 12.5h-6q-13 0 -22.5 -12.5t-9.5 -42.5v-505q0 -30 9.5 -42.5t22.5 -12.5h6q13 0 22.5 12.5
t9.5 42.5v138h-34v48h91v-283h-28l-7 24q-30 -30 -58 -30h-7zM80 815q0 -12 9 -21.5t21 -9.5q13 0 22 9.5t9 21.5h34q0 -26 -19 -45t-46 -19q-25 0 -44 19t-19 45h33z" />
    <glyph glyph-name="Gdotaccent" unicode="&#x120;" horiz-adv-x="220" 
d="M111 283h91v-283h-28l-7 24q-30 -30 -58 -30h-7q-15 0 -30 5.5t-27 16.5t-19.5 29t-7.5 43v522q0 25 7.5 43t19.5 29.5t27 17t30 5.5h16q15 0 30 -5.5t27 -17t19.5 -29.5t7.5 -43v-193h-57v185q0 30 -9.5 42.5t-22.5 12.5h-6q-13 0 -22.5 -12.5t-9.5 -42.5v-505
q0 -30 9.5 -42.5t22.5 -12.5h6q13 0 22.5 12.5t9.5 42.5v138h-34v48zM128 750h-38v67h38v-67z" />
    <glyph glyph-name="uni0122" unicode="&#x122;" horiz-adv-x="220" 
d="M102 -6q-15 0 -30 5.5t-27 16.5t-19.5 29t-7.5 43v522q0 25 7.5 43t19.5 29.5t27 17t30 5.5h16q15 0 30 -5.5t27 -17t19.5 -29.5t7.5 -43v-193h-57v185q0 30 -9.5 42.5t-22.5 12.5h-6q-13 0 -22.5 -12.5t-9.5 -42.5v-505q0 -30 9.5 -42.5t22.5 -12.5h6q13 0 22.5 12.5
t9.5 42.5v138h-34v48h91v-175v-5v-103h-28l-7 24q-30 -30 -58 -30h-7zM135 -117l-23 -59h-24l15 59h-26v87h58v-87z" />
    <glyph glyph-name="gcircumflex" unicode="&#x11d;" horiz-adv-x="201" 
d="M184 495v-571q0 -43 -22 -66t-51 -23h-18q-32 0 -54 23t-22 66v47h53v-47q0 -23 8 -34t19 -11h8q10 0 18 11t8 34v101q-13 -13 -26 -20.5t-26 -7.5h-3q-32 0 -45.5 23t-13.5 65v324q0 42 14.5 65.5t46.5 23.5h3q12 0 25 -7.5t25 -19.5l10 24h43zM100 41q11 0 20 12.5
t11 32.5v317q0 23 -10 36.5t-21 13.5h-3q-11 0 -19 -11t-8 -34v-322q0 -23 8 -34t19 -11h3zM125 621l57 -86h-50l-33 59l-32 -59h-51l57 86h52z" />
    <glyph glyph-name="gbreve" unicode="&#x11f;" horiz-adv-x="201" 
d="M141 495l-10 -24q-12 12 -25 19.5t-25 7.5h-3q-32 0 -46.5 -23.5t-14.5 -65.5v-324q0 -42 13.5 -65t45.5 -23h3q13 0 26 7.5t26 20.5v-101q0 -23 -8 -34t-18 -11h-8q-11 0 -19 11t-8 34v47h-53v-47q0 -43 22 -66t54 -23h18q29 0 51 23t22 66v571h-43zM97 41q-11 0 -19 11
t-8 34v322q0 23 8 34t19 11h3q11 0 21 -13.5t10 -36.5v-317q-2 -20 -11 -32.5t-20 -12.5h-3zM69 612q0 -12 9 -21.5t21 -9.5q13 0 22 9.5t9 21.5h34q0 -26 -19 -45t-46 -19q-25 0 -44 19t-19 45h33z" />
    <glyph glyph-name="gdotaccent" unicode="&#x121;" horiz-adv-x="201" 
d="M141 495l-10 -24q-12 12 -25 19.5t-25 7.5h-3q-32 0 -46.5 -23.5t-14.5 -65.5v-324q0 -42 13.5 -65t45.5 -23h3q13 0 26 7.5t26 20.5v-101q0 -23 -8 -34t-18 -11h-8q-11 0 -19 11t-8 34v47h-53v-47q0 -43 22 -66t54 -23h18q29 0 51 23t22 66v571h-43zM97 41q-11 0 -19 11
t-8 34v322q0 23 8 34t19 11h3q11 0 20 -12t11 -34v-316q0 -23 -10 -36.5t-21 -13.5h-3zM117 547h-38v67h38v-67z" />
    <glyph glyph-name="uni0123" unicode="&#x123;" horiz-adv-x="201" 
d="M141 495l-10 -24q-12 12 -25 19.5t-25 7.5h-3q-32 0 -46.5 -23.5t-14.5 -65.5v-324q0 -42 13.5 -65t45.5 -23h3q13 0 26 7.5t26 20.5v-101q0 -23 -8 -34t-18 -11h-8q-11 0 -19 11t-8 34v47h-53v-47q0 -43 22 -66t54 -23h18q29 0 51 23t22 66v571h-43zM97 41q-11 0 -19 11
t-8 34v322q0 23 8 34t19 11h3q11 0 20 -12t11 -34v-321q-2 -20 -11 -32.5t-20 -12.5h-3zM77 600l17 45h22l-11 -45h13v-65h-41v65z" />
    <glyph glyph-name="Hcircumflex" unicode="&#x124;" horiz-adv-x="220" 
d="M200 699v-699h-57v328h-66v-328h-57v699h57v-329h66v329h57zM136 824l57 -86h-50l-33 59l-32 -59h-51l57 86h52z" />
    <glyph glyph-name="hcircumflex" unicode="&#x125;" horiz-adv-x="204" 
d="M105 453q-11 0 -21 -13t-11 -34v-406h-53v699h53v-233q11 14 25 23t28 9h3q32 0 45.5 -23.5t13.5 -65.5v-409h-53v408q0 23 -8 34t-19 11h-3zM72 824l57 -86h-50l-33 59l-32 -59h-51l57 86h52z" />
    <glyph glyph-name="LATIN CAPITAL LETTER H WITH STROKE" unicode="&#x126;" horiz-adv-x="220" 
d="M20 515v184h57v-184h66v184h57v-184h18v-39h-18v-476h-57v328h-66v-328h-57v476h-18v39h18zM143 370v106h-66v-106h66z" />
    <glyph glyph-name="LATIN SMALL LETTER H WITH STROKE" unicode="&#x127;" horiz-adv-x="204" 
d="M105 453q-11 0 -21 -13t-11 -34v-406h-53v595h-29v39h29v65h53v-65h48v-39h-48v-129q11 14 25 23t28 9h3q32 0 45.5 -23.5t13.5 -65.5v-409h-53v408q0 23 -8 34t-19 11h-3z" />
    <glyph glyph-name="Itilde" unicode="&#x128;" horiz-adv-x="97" 
d="M20 699v-699h57v699h-57zM-31 785q17 31 43 31q16 0 32 -10.5t33 -10.5q13 0 26 14l26 -17q-10 -17 -21 -23t-24 -6q-17 0 -32.5 10t-29.5 10q-16 0 -29 -14z" />
    <glyph glyph-name="Ibreve" unicode="&#x12c;" horiz-adv-x="97" 
d="M20 699v-699h57v699h-57zM19 821q0 -11 9 -20.5t21 -9.5t21.5 9.5t9.5 20.5h34q0 -25 -19 -44t-47 -19q-24 0 -43 18.5t-19 44.5h33z" />
    <glyph glyph-name="Idotaccent" unicode="&#x130;" horiz-adv-x="97" 
d="M20 699v-699h57v699h-57zM66 757h-38v66h38v-66z" />
    <glyph glyph-name="Imacron" unicode="&#x12a;" horiz-adv-x="97" 
d="M77 699v-699h-57v699h57zM111 770h-127v39h127v-39z" />
    <glyph glyph-name="Iogonek" unicode="&#x12e;" horiz-adv-x="97" 
d="M101 -64q-8 -17 -24.5 -24.5t-32.5 -6t-28 13t-12 31.5q0 15 7.5 27t20.5 23h-12v699h57v-699h-2q-17 -6 -28 -19.5t-11 -24.5q1 -20 17.5 -22t27.5 15z" />
    <glyph glyph-name="iogonek" unicode="&#x12f;" horiz-adv-x="90" 
d="M97 -64q-8 -17 -24 -24.5t-32 -6t-28 13t-12 31.5q0 28 28 50h-9v495h53v-495h-2q-17 -6 -28 -19.5t-10 -24.5q0 -10 5 -15.5t12 -6.5t15 3t13 12zM73 617v-81h-53v81h53z" />
    <glyph glyph-name="itilde" unicode="&#x129;" horiz-adv-x="90" 
d="M20 495v-495h53v495h-53zM-33 575q17 30 43 30q17 0 32.5 -10t32.5 -10q13 0 26 14l26 -17q-10 -17 -21 -23.5t-24 -6.5q-17 0 -32.5 10t-29.5 10q-8 0 -15 -3t-14 -11z" />
    <glyph glyph-name="ibreve" unicode="&#x12d;" horiz-adv-x="90" 
d="M20 495v-495h53v495h-53zM17 611q0 -12 9 -21.5t21 -9.5t21.5 9.5t9.5 21.5h34q0 -26 -19 -45t-47 -19q-24 0 -43 19t-19 45h33z" />
    <glyph glyph-name="imacron" unicode="&#x12b;" horiz-adv-x="90" 
d="M73 495v-495h-53v495h53zM109 559h-127v40h127v-40z" />
    <glyph glyph-name="Jcircumflex" unicode="&#x134;" horiz-adv-x="220" 
d="M102 -6q-15 0 -30 5.5t-27 16.5t-19.5 29t-7.5 43v193h57v-184q0 -30 9.5 -42.5t22.5 -12.5h6q13 0 22.5 12.5t9.5 42.5v602h57v-611q0 -25 -7.5 -43t-19.5 -29t-27 -16.5t-30 -5.5h-16zM200 824l57 -86h-50l-33 59l-32 -59h-51l57 86h52z" />
    <glyph glyph-name="jcircumflex" unicode="&#x135;" horiz-adv-x="131" 
d="M113 495v-572q0 -42 -22.5 -65t-72.5 -23v44q19 0 30.5 10.5t11.5 33.5v572h53zM113 624l57 -86h-51l-33 59l-32 -59h-50l57 86h52z" />
    <glyph glyph-name="uni0136" unicode="&#x136;" horiz-adv-x="218" 
d="M117 363l96 -363h-52l-83 287h-1v-287h-57v699h57v-283h1l85 283h52zM146 -102l-22 -59h-25l15 59h-26v87h58v-87z" />
    <glyph glyph-name="uni0137" unicode="&#x137;" horiz-adv-x="196" 
d="M105 258l89 -258h-54l-68 197v-197h-52v699h52v-387l71 183h51zM133 -106l-22 -59h-25l15 59h-26v87h58v-87z" />
    <glyph glyph-name="uni013B" unicode="&#x13b;" horiz-adv-x="165" 
d="M77 699v-656h85v-43h-142v699h57zM117 -117l-22 -59h-25l15 59h-26v87h58v-87z" />
    <glyph glyph-name="Lacute" unicode="&#x139;" horiz-adv-x="165" 
d="M77 699v-656h85v-43h-142v699h57zM30 738l42 86h51l-57 -86h-36z" />
    <glyph glyph-name="Ldot" unicode="&#x13f;" horiz-adv-x="202" 
d="M77 699v-656h85v-43h-142v699h57zM191 249h-58v86h58v-86z" />
    <glyph glyph-name="lperiodcentered" unicode="&#x140;" horiz-adv-x="176" 
d="M20 699h53v-699h-53v699zM160 289h-58v87h58v-87z" />
    <glyph glyph-name="lquotesinglbase" unicode="&#x13c;" horiz-adv-x="89" 
d="M20 699h53v-699h-53v699zM75 -108l-23 -59h-24l15 59h-26v86h58v-86z" />
    <glyph glyph-name="LATIN SMALL LETTER L WITH CARON" unicode="&#x13e;" horiz-adv-x="165" 
d="M20 699h53v-699h-53v699zM153 612l-23 -59h-24l15 59h-26v87h58v-87z" />
    <glyph glyph-name="Ohungarumlaut" unicode="&#x150;" horiz-adv-x="220" 
d="M102 -6q-15 0 -30 5.5t-27 16.5t-19.5 29t-7.5 43v522q0 25 7.5 43t19.5 29.5t27 17t30 5.5h16q15 0 30 -5.5t27 -17t19.5 -29.5t7.5 -43v-522q0 -25 -7.5 -43t-19.5 -29t-27 -16.5t-30 -5.5h-16zM107 657q-13 0 -22.5 -13t-9.5 -42v-505q0 -30 9.5 -42.5t22.5 -12.5h6
q13 0 22.5 12.5t9.5 42.5v505q0 29 -9.5 42t-22.5 13h-6zM125 735l42 86h51l-57 -86h-36zM55 735l42 86h51l-57 -86h-36z" />
    <glyph glyph-name="ohungarumlaut" unicode="&#x151;" 
d="M93 -3q-32 0 -54 23t-22 65v324q0 42 22 65.5t54 23.5h15q32 0 54 -23.5t22 -65.5v-324q0 -42 -22 -65t-54 -23h-15zM98 453q-11 0 -19.5 -11t-8.5 -34v-322q0 -23 8.5 -34t19.5 -11h6q11 0 19 11t8 34v322q0 23 -8 34t-19 11h-6zM116 532l42 86h51l-57 -86h-36zM46 532
l42 86h51l-57 -86h-36z" />
    <glyph glyph-name="Racute" unicode="&#x154;" horiz-adv-x="228" 
d="M204 416q0 -32 -10 -47.5t-25 -20.5q15 -4 25 -19.5t10 -47.5v-168q0 -59 4 -83t6 -30h-57q-6 12 -8 38t-2 75v163q0 51 -27 51h-43v-327h-57v699h100q34 0 59 -23.5t25 -70.5v-189zM120 370q27 0 27 50v176q0 29 -9.5 42t-22.5 13h-38v-281h43zM83 738l42 86h51l-57 -86
h-36z" />
    <glyph glyph-name="racute" unicode="&#x155;" horiz-adv-x="202" 
d="M104 453q-11 0 -21.5 -13t-11.5 -34v-406h-53v495h53v-28q12 14 25.5 22.5t27.5 8.5h3q35 0 49 -29q11 -24 11 -60v-118h-53v117q0 23 -8.5 34t-19.5 11h-2zM78 535l42 86h50l-57 -86h-35z" />
    <glyph glyph-name="uni0156" unicode="&#x156;" horiz-adv-x="228" 
d="M204 416q0 -32 -10 -47.5t-25 -20.5q15 -4 25 -19.5t10 -47.5v-168q0 -59 4 -83t6 -30h-57q-6 12 -8 38t-2 75v163q0 51 -27 51h-43v-327h-57v699h100q34 0 59 -23.5t25 -70.5v-189zM120 370q27 0 27 50v176q0 29 -9.5 42t-22.5 13h-38v-281h43zM141 -117l-22 -59h-25
l15 59h-26v87h58v-87z" />
    <glyph glyph-name="Rcaron" unicode="&#x158;" horiz-adv-x="228" 
d="M204 605q0 47 -25 70.5t-59 23.5h-100v-699h57v327h43q27 0 27 -51v-163q0 -49 2 -75t8 -38h57q-2 6 -6 30t-4 83v168q0 32 -10 47.5t-25 19.5q15 5 25 20.5t10 47.5v189zM77 370v281h38q13 0 22.5 -13t9.5 -42v-176q0 -50 -27 -50h-43zM75 740l-57 86h51l32 -60l33 60
h50l-57 -86h-52z" />
    <glyph glyph-name="uni0157" unicode="&#x157;" horiz-adv-x="202" 
d="M104 453q-11 0 -21.5 -13t-11.5 -34v-406h-53v495h53v-28q12 14 25.5 22.5t27.5 8.5h3q35 0 49 -29q11 -24 11 -60v-118h-53v117q0 23 -8.5 34t-19.5 11h-2zM138 -117l-22 -59h-25l15 59h-26v87h58v-87z" />
    <glyph glyph-name="rcaron" unicode="&#x159;" horiz-adv-x="202" 
d="M106 453q11 0 19.5 -11t8.5 -34v-117h53v118q0 36 -11 60q-14 29 -49 29h-3q-14 0 -27.5 -8.5t-25.5 -22.5v28h-53v-495h53v406q1 21 11.5 34t21.5 13h2zM70 537l-57 86h50l32 -60l33 60h51l-57 -86h-52z" />
    <glyph glyph-name="Scircumflex" unicode="&#x15c;" horiz-adv-x="220" 
d="M145 417v185q0 30 -9.5 42.5t-22.5 12.5h-6q-13 0 -22.5 -12.5t-9.5 -42.5v-94q0 -48 20 -84t43.5 -69.5t43.5 -70t20 -84.5v-112q0 -25 -7 -43t-19 -29t-27 -16.5t-31 -5.5h-14q-15 0 -30.5 5.5t-28 16.5t-20 29t-7.5 43v194h52v-185q0 -30 10.5 -42.5t24.5 -12.5h6
q14 0 24 12.5t10 42.5v94q0 47 -20 83t-43.5 69.5t-43.5 70t-20 85.5v111q0 25 7.5 43t19.5 29.5t27.5 17t30.5 5.5h10q15 0 30 -5.5t27 -17t19.5 -29.5t7.5 -43v-193h-52zM136 824l57 -86h-50l-33 59l-32 -59h-51l57 86h52z" />
    <glyph glyph-name="Sacute" unicode="&#x15a;" horiz-adv-x="220" 
d="M145 417v185q0 30 -9.5 42.5t-22.5 12.5h-6q-13 0 -22.5 -12.5t-9.5 -42.5v-94q0 -48 20 -84t43.5 -69.5t43.5 -70t20 -84.5v-112q0 -25 -7 -43t-19 -29t-27 -16.5t-31 -5.5h-14q-15 0 -30.5 5.5t-28 16.5t-20 29t-7.5 43v194h52v-185q0 -30 10.5 -42.5t24.5 -12.5h6
q14 0 24 12.5t10 42.5v94q0 47 -20 83t-43.5 69.5t-43.5 70t-20 85.5v111q0 25 7.5 43t19.5 29.5t27.5 17t30.5 5.5h10q15 0 30 -5.5t27 -17t19.5 -29.5t7.5 -43v-193h-52zM91 738l42 86h51l-57 -86h-36z" />
    <glyph glyph-name="Scedilla" unicode="&#x15e;" horiz-adv-x="220" 
d="M57 -70q9 -7 22.5 -10t25 -1.5t19.5 7.5t7 18q-1 14 -15 18t-25 -4l-12 4l15 33q-14 1 -28 7t-24.5 17.5t-17 28.5t-6.5 40v194h52v-185q0 -30 10.5 -42.5t24.5 -12.5h6q14 0 24 12.5t10 42.5v94q0 47 -20 83t-43.5 69.5t-43.5 70t-20 85.5v111q0 25 7.5 43t19.5 29.5
t27.5 17t30.5 5.5h10q15 0 30 -5.5t27 -17t19.5 -29.5t7.5 -43v-193h-52v185q0 30 -9.5 42.5t-22.5 12.5h-6q-13 0 -22.5 -12.5t-9.5 -42.5v-94q0 -48 20 -84t43.5 -69.5t43.5 -70t20 -84.5v-112q0 -48 -23 -69.5t-52 -23.5l-8 -21q17 8 34 -0.5t17 -28.5q0 -24 -14.5 -37
t-34.5 -17t-40 0t-30 13z" />
    <glyph glyph-name="Uhungarumlaut" unicode="&#x170;" horiz-adv-x="222" 
d="M104 -6q-15 0 -30 5.5t-27 16.5t-19.5 29t-7.5 43v611h57v-602q0 -30 9.5 -42.5t22.5 -12.5h6q13 0 22.5 12.5t9.5 42.5v602h57v-611q0 -25 -7.5 -43t-19.5 -29t-27 -16.5t-30 -5.5h-16zM41 735l42 86h50l-57 -86h-35zM111 735l42 86h50l-57 -86h-35z" />
    <glyph glyph-name="uogonek" unicode="&#x173;" horiz-adv-x="202" 
d="M99 41q11 0 22 14.5t11 37.5v402h53v-495h2q-17 -6 -28 -19.5t-11 -24.5q1 -20 17.5 -22t27.5 15l20 -13q-8 -17 -24.5 -24.5t-32.5 -6t-28 13t-12 31.5q0 15 7.5 27t20.5 23h-12v28q-13 -14 -26.5 -22.5t-27.5 -8.5h-3q-32 0 -45.5 23t-13.5 65v410h53v-409q0 -23 8 -34
t19 -11h3z" />
    <glyph glyph-name="uhungarumlaut" unicode="&#x171;" horiz-adv-x="202" 
d="M99 41q11 0 21 13t12 34v407h53v-495h-53v28q-13 -14 -26.5 -22.5t-27.5 -8.5h-3q-32 0 -45.5 23t-13.5 65v410h53v-409q0 -23 8 -34t19 -11h3zM46 531l42 86h50l-57 -86h-35zM116 531l42 86h50l-57 -86h-35z" />
    <glyph glyph-name="Wcircumflex" unicode="&#x174;" horiz-adv-x="325" 
d="M52 0l-52 699h55l36 -505h1l47 505h47l51 -505h2l36 505h50l-52 -699h-57l-53 477h-1l-46 -477h-64zM187 824l57 -86h-50l-33 59l-32 -59h-51l57 86h52z" />
    <glyph glyph-name="wcircumflex" unicode="&#x175;" horiz-adv-x="308" 
d="M52 0l-50 495h49l34 -358h2l46 358h47l46 -358h1l34 358h45l-50 -495h-59l-45 380h-1l-41 -380h-58zM182 620l57 -86h-51l-33 59l-32 -59h-50l57 86h52z" />
    <glyph glyph-name="Ycircumflex" unicode="&#x176;" horiz-adv-x="213" 
d="M135 266v-266h-57v266l-75 433h57l45 -303h2l46 303h57zM133 824l57 -86h-51l-33 59l-32 -59h-50l57 86h52z" />
    <glyph glyph-name="ycircumflex" unicode="&#x177;" horiz-adv-x="179" 
d="M133 495h44l-71 -660h-52l20 165l-72 495h48l42 -346h2zM118 620l57 -86h-50l-33 59l-32 -59h-51l57 86h52z" />
    <glyph glyph-name="Ydieresis" unicode="&#x178;" horiz-adv-x="213" 
d="M210 699h-57l-46 -303h-2l-45 303h-57l75 -433v-266h57v266zM90 750h-38v66h38v-66zM161 750h-38v66h38v-66z" />
    <glyph glyph-name="Zacute" unicode="&#x179;" horiz-adv-x="210" 
d="M200 0h-190v41l123 615h-105v43h163v-41l-124 -615h133v-43zM86 738l42 86h51l-57 -86h-36z" />
    <glyph glyph-name="Zcaron" unicode="&#x17d;" horiz-adv-x="210" 
d="M200 0h-190v41l123 615h-105v43h163v-41l-124 -615h133v-43zM78 740l-57 86h51l32 -60l33 60h50l-57 -86h-52z" />
    <glyph glyph-name="Zdotaccent" unicode="&#x17b;" horiz-adv-x="210" 
d="M200 0h-190v41l123 615h-105v43h163v-41l-124 -615h133v-43zM123 751h-38v66h38v-66z" />
    <glyph glyph-name="zacute" unicode="&#x17a;" horiz-adv-x="170" 
d="M167 0h-165v43l111 409h-100v43h152v-43l-111 -409h113v-43zM70 535l42 86h50l-57 -86h-35z" />
    <glyph glyph-name="zcaron" unicode="&#x17e;" horiz-adv-x="170" 
d="M167 0h-165v43l111 409h-100v43h152v-43l-111 -409h113v-43zM62 537l-57 86h50l32 -60l33 60h51l-57 -86h-52z" />
    <glyph glyph-name="zdotaccent" unicode="&#x17c;" horiz-adv-x="170" 
d="M167 0h-165v43l111 409h-100v43h152v-43l-111 -409h113v-43zM106 547h-38v67h38v-67z" />
    <glyph glyph-name="Scaron" unicode="&#x160;" horiz-adv-x="220" 
d="M197 417v193q0 25 -7.5 43t-19.5 29.5t-27 17t-30 5.5h-10q-15 0 -30.5 -5.5t-27.5 -17t-19.5 -29.5t-7.5 -43v-111q0 -49 20 -85.5t43.5 -70t43.5 -69.5t20 -83v-94q0 -30 -10 -42.5t-24 -12.5h-6q-14 0 -24.5 12.5t-10.5 42.5v185h-52v-194q0 -25 7.5 -43t20 -29
t28 -16.5t30.5 -5.5h14q16 0 31 5.5t27 16.5t19 29t7 43v112q0 48 -20 84.5t-43.5 70t-43.5 69.5t-20 84v94q0 30 9.5 42.5t22.5 12.5h6q13 0 22.5 -12.5t9.5 -42.5v-185h52zM83 740l-57 86h51l32 -60l33 60h50l-57 -86h-52z" />
    <glyph glyph-name="scaron" unicode="&#x161;" 
d="M179 300v109q0 42 -22.5 65.5t-54.5 23.5h-9q-32 0 -54 -23.5t-22 -65.5v-60q0 -37 18 -62.5t39 -47.5t39 -44t18 -53v-56q0 -22 -8.5 -33.5t-20.5 -11.5h-7q-13 0 -21.5 11.5t-8.5 33.5v109h-48v-110q0 -42 22.5 -65t54.5 -23h15q30 0 52.5 23t22.5 65v60q0 24 -8.5 43
t-21 34.5t-27.5 30t-27.5 29.5t-21 32t-8.5 39v55q0 22 8.5 33.5t19.5 11.5h5q11 0 19.5 -11.5t8.5 -33.5v-108h48zM71 537l-57 86h51l32 -60l33 60h50l-57 -86h-52z" />
    <glyph glyph-name="Tcedilla" unicode="&#x162;" horiz-adv-x="194" 
d="M191 651h-65v-651h-57v651h-66v48h188v-48zM37 -91l6 26q9 -7 22.5 -10t25 -1.5t19.5 7.5t7 18q-1 14 -15 18t-25 -4l-12 4l16 33h32l-8 -21q17 8 34 -0.5t17 -28.5q0 -24 -14.5 -37t-34.5 -17t-40 0t-30 13z" />
    <glyph glyph-name="Tcaron" unicode="&#x164;" horiz-adv-x="194" 
d="M191 699h-188v-48h66v-651h57v651h65v48zM71 740l-57 86h50l32 -60l33 60h51l-57 -86h-52z" />
    <glyph glyph-name="tcaron" unicode="&#x165;" horiz-adv-x="208" 
d="M86 657v-162h42v-45h-42v-365q0 -24 11 -36t31 -8v-43q-51 -6 -73 19.5t-22 67.5v365h-25v45h25v157zM193 570l-23 -59h-24l15 59h-26v86h58v-86z" />
    <glyph glyph-name="uni00A0" unicode="&#xa0;" horiz-adv-x="0" 
 />
    <glyph glyph-name="tbar" unicode="&#x167;" horiz-adv-x="138" 
d="M86 657v-162h42v-45h-42v-85h42v-45h-42v-235q0 -24 11 -36t31 -8v-43q-51 -6 -73 19.5t-22 67.5v235h-25v45h25v85h-25v45h25v157z" />
    <glyph glyph-name="_0144" unicode="&#x166;" horiz-adv-x="194" 
d="M171 327h-45v-327h-57v327h-46v39h46v285h-66v48h188v-48h-65v-285h45v-39z" />
    <glyph glyph-name="tcedilla" unicode="&#x163;" horiz-adv-x="138" 
d="M86 657v-162h42v-45h-42v-365q0 -24 11 -36t31 -8v-43q-2 0 -4.5 -0.5t-4.5 -0.5l-7 -17q17 7 34 -1.5t17 -27.5q0 -24 -14.5 -37t-34.5 -17t-40 -0.5t-30 12.5l6 26q9 -6 22.5 -9t25 -1.5t19.5 7.5t7 18q-1 13 -15 17t-25 -4l-12 5l16 32q-29 6 -42 29.5t-13 55.5v365
h-25v45h25v157z" />
    <glyph glyph-name="Utilde" unicode="&#x168;" horiz-adv-x="222" 
d="M104 -6q-15 0 -30 5.5t-27 16.5t-19.5 29t-7.5 43v611h57v-602q0 -30 9.5 -42.5t22.5 -12.5h6q13 0 22.5 12.5t9.5 42.5v602h57v-611q0 -25 -7.5 -43t-19.5 -29t-27 -16.5t-30 -5.5h-16zM25 779q16 30 43 30q17 0 32 -10t32 -10q14 0 27 14l26 -17q-10 -17 -21 -23.5
t-24 -6.5q-18 0 -33 10t-29 10q-8 0 -15 -3t-15 -11z" />
    <glyph glyph-name="Uring" unicode="&#x16e;" horiz-adv-x="222" 
d="M104 -6q-15 0 -30 5.5t-27 16.5t-19.5 29t-7.5 43v611h57v-602q0 -30 9.5 -42.5t22.5 -12.5h6q13 0 22.5 12.5t9.5 42.5v602h57v-611q0 -25 -7.5 -43t-19.5 -29t-27 -16.5t-30 -5.5h-16zM104 731q-23 0 -41 17.5t-18 40.5q0 25 17.5 43.5t40.5 18.5q25 0 43.5 -18
t18.5 -44q0 -23 -17.5 -40.5t-43.5 -17.5zM104 821q-11 0 -20.5 -9.5t-9.5 -21.5q0 -11 9.5 -20.5t20.5 -9.5q12 0 21.5 9.5t9.5 20.5q0 12 -9.5 21.5t-21.5 9.5z" />
    <glyph glyph-name="Ubreve" unicode="&#x16c;" horiz-adv-x="222" 
d="M104 -6q-15 0 -30 5.5t-27 16.5t-19.5 29t-7.5 43v611h57v-602q0 -30 9.5 -42.5t22.5 -12.5h6q13 0 22.5 12.5t9.5 42.5v602h57v-611q0 -25 -7.5 -43t-19.5 -29t-27 -16.5t-30 -5.5h-16zM74 815q0 -12 9 -21.5t21 -9.5q13 0 22 9.5t9 21.5h34q0 -26 -19 -45t-46 -19
q-25 0 -44 19t-19 45h33z" />
    <glyph glyph-name="Umacron" unicode="&#x16a;" horiz-adv-x="222" 
d="M104 -6q-15 0 -30 5.5t-27 16.5t-19.5 29t-7.5 43v611h57v-602q0 -30 9.5 -42.5t22.5 -12.5h6q13 0 22.5 12.5t9.5 42.5v602h57v-611q0 -25 -7.5 -43t-19.5 -29t-27 -16.5t-30 -5.5h-16zM166 763h-126v40h126v-40z" />
    <glyph glyph-name="utilde" unicode="&#x169;" horiz-adv-x="202" 
d="M96 41q-11 0 -19 11t-8 34v409h-53v-410q0 -42 13.5 -65t45.5 -23h3q14 0 27.5 8.5t26.5 22.5v-28h53v495h-53v-402q0 -23 -11 -37.5t-22 -14.5h-3zM21 575q17 30 43 30q17 0 32.5 -10t32.5 -10q13 0 26 14l26 -17q-10 -17 -21 -23.5t-24 -6.5q-17 0 -32.5 10t-29.5 10
q-8 0 -15 -3t-14 -11z" />
    <glyph glyph-name="uring" unicode="&#x16f;" horiz-adv-x="202" 
d="M96 41q-11 0 -19 11t-8 34v409h-53v-410q0 -42 13.5 -65t45.5 -23h3q14 0 27.5 8.5t26.5 22.5v-28h53v495h-53v-407q-2 -21 -12 -34t-21 -13h-3zM100 527q-23 0 -41 17.5t-18 40.5q0 25 17.5 43.5t41.5 18.5q25 0 43 -18t18 -44q0 -23 -17.5 -40.5t-43.5 -17.5zM100 617
q-11 0 -20.5 -9.5t-9.5 -21.5q0 -11 9.5 -20.5t20.5 -9.5q13 0 22 9.5t9 20.5q0 12 -9 21.5t-22 9.5z" />
    <glyph glyph-name="ubreve" unicode="&#x16d;" horiz-adv-x="202" 
d="M96 41q-11 0 -19 11t-8 34v409h-53v-410q0 -42 13.5 -65t45.5 -23h3q14 0 27.5 8.5t26.5 22.5v-28h53v495h-53v-402q0 -23 -11 -37.5t-22 -14.5h-3zM71 611q0 -12 9 -21.5t21 -9.5t21.5 9.5t9.5 21.5h34q0 -26 -19 -45t-47 -19q-24 0 -43 19t-19 45h33z" />
    <glyph glyph-name="umacron" unicode="&#x16b;" horiz-adv-x="202" 
d="M99 41q11 0 22 14.5t11 37.5v402h53v-495h-53v28q-13 -14 -26.5 -22.5t-27.5 -8.5h-3q-32 0 -45.5 23t-13.5 65v410h53v-409q0 -23 8 -34t19 -11h3zM163 559h-127v40h127v-40z" />
    <glyph glyph-name="ij" unicode="&#x133;" horiz-adv-x="193" 
d="M73 495v-495h-53v495h53zM73 617v-81h-53v81h53zM173 619v-84h-53v84h53zM173 495v-572q0 -42 -22 -65t-73 -23v44q20 0 31 10.5t11 33.5v572h53z" />
    <glyph glyph-name="Nacute" unicode="&#x143;" horiz-adv-x="244" 
d="M163 0l-98 526h-1v-526h-48v699h65l94 -520h1v520h52v-699h-65zM104 738l42 86h50l-57 -86h-35z" />
    <glyph glyph-name="Ncaron" unicode="&#x147;" horiz-adv-x="244" 
d="M163 0l-98 526h-1v-526h-48v699h65l94 -520h1v520h52v-699h-65zM96 740l-57 86h50l32 -60l33 60h51l-57 -86h-52z" />
    <glyph glyph-name="uni0146" unicode="&#x146;" horiz-adv-x="203" 
d="M104 453q-11 0 -21.5 -13t-11.5 -34v-406h-53v495h53v-28q12 14 25.5 22.5t27.5 8.5h3q32 0 46 -23.5t14 -65.5v-409h-53v408q0 23 -8.5 34t-19.5 11h-2zM132 -106l-23 -59h-24l15 59h-26v87h58v-87z" />
    <glyph glyph-name="nacute" unicode="&#x144;" horiz-adv-x="203" 
d="M104 453q-11 0 -21.5 -13t-11.5 -34v-406h-53v495h53v-28q12 14 25.5 22.5t27.5 8.5h3q32 0 46 -23.5t14 -65.5v-409h-53v408q0 23 -8.5 34t-19.5 11h-2zM72 535l42 86h51l-57 -86h-36z" />
    <glyph glyph-name="ncaron" unicode="&#x148;" horiz-adv-x="203" 
d="M106 453q11 0 19.5 -11t8.5 -34v-408h53v409q0 42 -14 65.5t-46 23.5h-3q-14 0 -27.5 -8.5t-25.5 -22.5v28h-53v-495h53v406q1 21 11.5 34t21.5 13h2zM78 537l-57 86h50l32 -60l33 60h51l-57 -86h-52z" />
    <glyph glyph-name="uni0145" unicode="&#x145;" horiz-adv-x="244" 
d="M163 0l-98 526h-1v-526h-48v699h65l94 -520h1v520h52v-699h-65zM141 -102l-22 -59h-25l15 59h-26v87h58v-87z" />
    <glyph glyph-name="Eng" unicode="&#x14a;" horiz-adv-x="242" 
d="M160 0l-96 528h-1v-528h-45v699h64l92 -522h1v522h49v-776q0 -42 -27.5 -65t-77.5 -23v44q19 0 30.5 10.5t11.5 33.5v77h-1z" />
    <glyph glyph-name="eng" unicode="&#x14b;" horiz-adv-x="203" 
d="M104 453q-11 0 -21.5 -13t-11.5 -34v-406h-53v495h53v-28q12 14 25.5 22.5t27.5 8.5h3q32 0 46 -23.5t14 -65.5v-486q0 -42 -22.5 -65t-72.5 -23v44q19 0 30.5 10.5t11.5 33.5v485q0 23 -8.5 34t-19.5 11h-2z" />
    <glyph glyph-name="Obreve" unicode="&#x14e;" horiz-adv-x="220" 
d="M102 -6q-15 0 -30 5.5t-27 16.5t-19.5 29t-7.5 43v522q0 25 7.5 43t19.5 29.5t27 17t30 5.5h16q15 0 30 -5.5t27 -17t19.5 -29.5t7.5 -43v-522q0 -25 -7.5 -43t-19.5 -29t-27 -16.5t-30 -5.5h-16zM107 657q-13 0 -22.5 -13t-9.5 -42v-505q0 -30 9.5 -42.5t22.5 -12.5h6
q13 0 22.5 12.5t9.5 42.5v505q0 29 -9.5 42t-22.5 13h-6zM80 815q0 -12 9 -21.5t21 -9.5q13 0 22 9.5t9 21.5h34q0 -26 -19 -45t-46 -19q-25 0 -44 19t-19 45h33z" />
    <glyph glyph-name="Omacron" unicode="&#x14c;" horiz-adv-x="220" 
d="M102 -6q-15 0 -30 5.5t-27 16.5t-19.5 29t-7.5 43v522q0 25 7.5 43t19.5 29.5t27 17t30 5.5h16q15 0 30 -5.5t27 -17t19.5 -29.5t7.5 -43v-522q0 -25 -7.5 -43t-19.5 -29t-27 -16.5t-30 -5.5h-16zM107 657q-13 0 -22.5 -13t-9.5 -42v-505q0 -30 9.5 -42.5t22.5 -12.5h6
q13 0 22.5 12.5t9.5 42.5v505q0 29 -9.5 42t-22.5 13h-6zM172 763h-126v40h126v-40z" />
    <glyph glyph-name="obreve" unicode="&#x14f;" 
d="M93 -3q-32 0 -54 23t-22 65v324q0 42 22 65.5t54 23.5h15q32 0 54 -23.5t22 -65.5v-324q0 -42 -22 -65t-54 -23h-15zM98 453q-11 0 -19.5 -11t-8.5 -34v-322q0 -23 8.5 -34t19.5 -11h6q11 0 19 11t8 34v322q0 23 -8 34t-19 11h-6zM71 612q0 -12 9 -21.5t21 -9.5
q13 0 22 9.5t9 21.5h34q0 -26 -19 -45t-46 -19q-25 0 -44 19t-19 45h33z" />
    <glyph glyph-name="omacron" unicode="&#x14d;" 
d="M93 -3q-32 0 -54 23t-22 65v324q0 42 22 65.5t54 23.5h15q32 0 54 -23.5t22 -65.5v-324q0 -42 -22 -65t-54 -23h-15zM98 453q-11 0 -19.5 -11t-8.5 -34v-322q0 -23 8.5 -34t19.5 -11h6q11 0 19 11t8 34v322q0 23 -8 34t-19 11h-6zM163 560h-126v40h126v-40z" />
    <glyph glyph-name="longs" unicode="&#x17f;" horiz-adv-x="159" 
d="M17 495h25v122q0 21 7 39.5t21.5 30.5t36 16.5t50.5 -2.5v-42q-21 4 -41.5 -6.5t-20.5 -39.5v-613h-53v450h-25v45z" />
    <glyph glyph-name="napostrophe" unicode="&#x149;" horiz-adv-x="264" 
d="M167 453q11 0 19.5 -11t8.5 -34v-408h53v409q0 42 -14 65.5t-46 23.5h-3q-14 0 -27.5 -8.5t-25.5 -22.5v28h-53v-495h53v406q1 21 11.5 34t21.5 13h2zM71 595l-23 -59h-24l15 59h-26v86h58v-86z" />
    <glyph glyph-name="IJ" unicode="&#x132;" horiz-adv-x="318" 
d="M77 699v-699h-57v699h57zM199 -6q-15 0 -30.5 5.5t-27.5 16.5t-19.5 29t-7.5 43v193h57v-184q0 -30 9.5 -42.5t22.5 -12.5h7q13 0 22.5 12.5t9.5 42.5v602h57v-611q0 -25 -7.5 -43t-19.5 -29t-27 -16.5t-31 -5.5h-15z" />
    <glyph glyph-name=".001" unicode="&#x138;" horiz-adv-x="196" 
d="M105 258l89 -258h-54l-68 197v-197h-52v495h52v-183l71 183h51z" />
    <glyph glyph-name="Eth" unicode="&#xd0;" horiz-adv-x="222" 
d="M20 0v330h-26v40h26v329h100q15 0 30 -5t27 -16t19.5 -28.5t7.5 -42.5v-516q0 -25 -7.5 -42.5t-19.5 -28t-27 -15.5t-30 -5h-100zM77 651v-281h25v-40h-25v-282h38q13 0 22.5 11t9.5 41v499q0 29 -9.5 40.5t-22.5 11.5h-38z" />
    <glyph glyph-name="Lcaron" unicode="&#x13d;" horiz-adv-x="202" 
d="M20 699v-699h142v43h-85v656h-57zM176 613l-22 -59h-25l15 59h-26v87h58v-87z" />
    <glyph glyph-name="Uogonek" unicode="&#x172;" horiz-adv-x="222" 
d="M164 -70q-8 -17 -24 -24.5t-32 -6t-28 13t-12 31.5q0 15 7.5 27.5t20.5 22.5h1q-14 1 -28 7t-25 17t-17.5 28.5t-6.5 41.5v611h57v-602q0 -30 9.5 -42.5t22.5 -12.5h6q13 0 22.5 12.5t9.5 42.5v602h57v-611q0 -44 -20.5 -65.5t-46.5 -26.5q-17 -8 -27.5 -21.5t-9.5 -24.5
q0 -10 5 -15.5t12 -6.5t15 3t13 12z" />
    <glyph glyph-name="eth" unicode="&#xf0;" horiz-adv-x="226" 
d="M184 0h-43l-6 30q-12 -15 -26 -24t-28 -9h-3q-32 0 -46.5 23t-14.5 65v324q0 42 13.5 65.5t45.5 23.5h3q13 0 26.5 -8t25.5 -22v127h-35v39h35v65h53v-65h42v-39h-42v-595zM98 453q-11 0 -19.5 -11t-8.5 -34v-322q0 -23 8 -34t19 -11h3q11 0 21 13.5t10 36.5v312
q0 23 -10 36.5t-21 13.5h-2z" />
    <glyph glyph-name="iacute" unicode="&#xed;" horiz-adv-x="90" 
d="M73 495v-495h-53v495h53zM28 534l42 86h50l-57 -86h-35z" />
    <glyph glyph-name="lacute" unicode="&#x13a;" horiz-adv-x="89" 
d="M20 699h53v-699h-53v699zM29 738l42 86h50l-57 -86h-35z" />
    <glyph glyph-name="sacute" unicode="&#x15b;" 
d="M131 300v108q0 22 -8.5 33.5t-19.5 11.5h-5q-11 0 -19.5 -11.5t-8.5 -33.5v-55q0 -22 8.5 -39t21 -32t27.5 -29.5t27.5 -30t21 -34.5t8.5 -43v-60q0 -42 -22.5 -65t-52.5 -23h-15q-32 0 -54.5 23t-22.5 65v110h48v-109q0 -22 8.5 -33.5t21.5 -11.5h7q12 0 20.5 11.5
t8.5 33.5v56q0 31 -18 53t-39 44t-39 47.5t-18 62.5v60q0 42 22 65.5t54 23.5h9q32 0 54.5 -23.5t22.5 -65.5v-109h-48zM79 535l42 86h51l-57 -86h-36z" />
    <glyph glyph-name="scircumflex" unicode="&#x15d;" 
d="M131 300v108q0 22 -8.5 33.5t-19.5 11.5h-5q-11 0 -19.5 -11.5t-8.5 -33.5v-55q0 -22 8.5 -39t21 -32t27.5 -29.5t27.5 -30t21 -34.5t8.5 -43v-60q0 -42 -22.5 -65t-52.5 -23h-15q-32 0 -54.5 23t-22.5 65v110h48v-109q0 -22 8.5 -33.5t21.5 -11.5h7q12 0 20.5 11.5
t8.5 33.5v56q0 31 -18 53t-39 44t-39 47.5t-18 62.5v60q0 42 22 65.5t54 23.5h9q32 0 54.5 -23.5t22.5 -65.5v-109h-48zM124 621l57 -86h-50l-33 59l-32 -59h-51l57 86h52z" />
    <glyph glyph-name="scedilla" unicode="&#x15f;" 
d="M47 -68q9 -7 22.5 -10t25.5 -1.5t20 7.5t7 18q-2 13 -16 17t-25 -3l-12 4l16 34q-29 2 -48.5 25t-19.5 62v110h48v-109q0 -22 8.5 -33.5t21.5 -11.5h7q12 0 20.5 11.5t8.5 33.5v56q0 31 -18 53t-39 44t-39 47.5t-18 62.5v60q0 42 22 65.5t54 23.5h9q32 0 54.5 -23.5
t22.5 -65.5v-109h-48v108q0 22 -8.5 33.5t-19.5 11.5h-5q-11 0 -19.5 -11.5t-8.5 -33.5v-55q0 -22 8.5 -39t21 -32t27.5 -29.5t27.5 -30t21 -34.5t8.5 -43v-60q0 -40 -20 -62.5t-47 -24.5l-8 -22q18 8 34.5 -0.5t16.5 -28.5q0 -24 -14.5 -37t-34.5 -17t-40 0t-30 13z" />
    <glyph glyph-name="minus" unicode="&#x2212;" horiz-adv-x="241" 
d="M221 369v-39h-201v39h201z" />
    <glyph glyph-name="fl" unicode="&#xfb02;" horiz-adv-x="248" 
d="M42 0v450h-25v45h25v122q0 21 7 39.5t21.5 30.5t36 16.5t50.5 -2.5v-42q-21 4 -41.5 -6.5t-20.5 -39.5v-118h62v-45h-62v-450h-53zM180 0h53v699h-53v-699z" />
    <glyph glyph-name="_0158" horiz-adv-x="0" 
 />
    <glyph glyph-name="J" unicode="J" horiz-adv-x="220" 
d="M102 -6q-15 0 -30 5.5t-27 16.5t-19.5 29t-7.5 43v193h57v-184q0 -30 9.5 -42.5t22.5 -12.5h6q13 0 22.5 12.5t9.5 42.5v602h57v-611q0 -25 -7.5 -43t-19.5 -29t-27 -16.5t-30 -5.5h-16z" />
    <glyph glyph-name="H" unicode="H" horiz-adv-x="220" 
d="M200 699v-699h-57v328h-66v-328h-57v699h57v-329h66v329h57z" />
    <glyph glyph-name="I" unicode="I" horiz-adv-x="97" 
d="M77 699v-699h-57v699h57z" />
    </font>
</defs>
</svg>
